<svg xmlns="http://www.w3.org/2000/svg" xmlns:xlink="http://www.w3.org/1999/xlink" viewBox="0 0 3336.9 727.34"><defs><style>.cls-1,.cls-13,.cls-15,.cls-16,.cls-9{fill:none;}.cls-2{clip-path:url(#clip-path);}.cls-3{fill:#bfd1ff;}.cls-4{opacity:0.64;}.cls-5{fill:#006837;}.cls-6{fill:#ccc;}.cls-7{fill:#22b573;}.cls-8{fill:#f2f2f2;}.cls-13,.cls-14,.cls-15,.cls-16,.cls-17,.cls-9{stroke:#000;}.cls-16,.cls-9{stroke-miterlimit:10;}.cls-14,.cls-9{stroke-width:2px;}.cls-10{fill:#8c6239;}.cls-11{fill:#b3b3b3;}.cls-12{fill:#c69c6d;}.cls-13,.cls-14{stroke-linecap:round;}.cls-13,.cls-14,.cls-15,.cls-17{stroke-linejoin:round;}.cls-13{stroke-width:0.5px;}.cls-14{fill:url(#linear-gradient);}.cls-15{stroke-width:14px;}.cls-16{stroke-width:21px;}.cls-17{fill:#b97700;stroke-width:20px;}</style><clipPath id="clip-path"><rect class="cls-1" x="19" y="22.05" width="871.22" height="687.24" rx="123.53" ry="123.53"/></clipPath><linearGradient id="linear-gradient" x1="706.55" y1="535.58" x2="1070.96" y2="899.99" gradientUnits="userSpaceOnUse"><stop offset="0" stop-color="#00bf5c"/><stop offset="0.56" stop-color="#027f00"/></linearGradient></defs><title>logo</title><g id="Mask"><g class="cls-2"><rect class="cls-3" x="-17.33" y="-57.52" width="986.72" height="777.5"/><g class="cls-4"><path class="cls-5" d="M1262.55,689.17H761.26V256.8c6.09,17.36,20.89,62,34.36,60,11.94-1.77,19-41.86,20.62-46.8s5.91-21.53,10.3-18.31,37.8,61,48.38,63.72c20,5.07,31.3-42.73,32.3-47.12Z"/><path class="cls-6" d="M761.26,95.45l146,172.87c-1,4.39-12.29,52.19-32.3,47.12-10.58-2.68-44-60.51-48.38-63.72s-8.64,13.36-10.3,18.31-8.68,45-20.62,46.8c-13.47,2-28.27-42.67-34.36-60Z"/><path class="cls-7" d="M761.26,256.8V689.17H260l354.87-420.3s2.11,52,45.06,19.47,41.23-38.66,39.51-26.45-19.76,63.6,8.59,48.83c17.37-9.05,43.36-41,46.31-46,1.43-2.38,5.64-11.66,6.58-9C761,256.11,761.14,256.46,761.26,256.8Z"/><path class="cls-8" d="M761.26,95.45V256.8c-.12-.34-.24-.69-.36-1-.94-2.69-5.15,6.59-6.58,9-3,5-28.94,36.91-46.31,46-28.35,14.77-10.31-36.62-8.59-48.83s3.44-6.1-39.51,26.45-45.06-19.47-45.06-19.47Z"/><polyline class="cls-9" points="259.64 689.17 259.98 689.17 761.26 689.17 1262.55 689.17 1262.89 689.17"/><polyline class="cls-9" points="259.98 689.17 614.85 268.87 761.26 95.45 907.22 268.32 1262.55 689.17"/><polyline class="cls-9" points="761.26 95.05 761.26 95.45 761.26 256.8 761.26 689.17"/><path class="cls-9" d="M614.85,268.87s2.11,52,45.06,19.47,41.23-38.66,39.51-26.45-19.76,63.6,8.59,48.83c17.37-9.05,43.36-41,46.31-46,1.43-2.38,5.64-11.66,6.58-9,.12.32.24.67.36,1,6.09,17.36,20.89,62,34.36,60,11.94-1.77,19-41.86,20.62-46.8s5.91-21.53,10.3-18.31,37.8,61,48.38,63.72c20,5.07,31.3-42.73,32.3-47.12,0-.22.07-.33.07-.33"/><path class="cls-10" d="M761.23,719.16h-483V339c4.54-.19,9.57-1.79,15.1-5.41C314.37,319.73,320,313.8,334,321.71s21.58,14.14,38.86-6.76Z"/><path class="cls-11" d="M278.22,216.4,372.9,315c-17.28,20.9-24.83,14.65-38.86,6.76s-19.67-2-40.72,11.85c-5.53,3.62-10.56,5.22-15.1,5.41Z"/><path class="cls-12" d="M278.22,339V719.16h-483l391.93-408s-.53,32.23,28.26,19.4,31.58-18.77,37.19-8.89C256.75,329,265.48,339.5,278.22,339Z"/><path class="cls-8" d="M278.22,216.4V339c-12.74.53-21.47-10-25.62-17.26-5.61-9.88-8.43-3.95-37.19,8.89s-28.26-19.4-28.26-19.4Z"/><polyline class="cls-9" points="-205.11 719.16 -204.78 719.16 278.22 719.16 761.23 719.16 761.56 719.16"/><polyline class="cls-9" points="-204.78 719.16 187.15 311.2 278.22 216.4 372.9 314.95 761.23 719.16"/><polyline class="cls-9" points="278.22 216.05 278.22 216.4 278.22 338.97 278.22 719.16"/><path class="cls-13" d="M187.15,311.2s-.53,32.23,28.26,19.4,31.58-18.77,37.19-8.89c4.15,7.28,12.88,17.79,25.62,17.26,4.54-.19,9.57-1.79,15.1-5.41C314.37,319.73,320,313.8,334,321.71s21.58,14.14,38.86-6.76"/><path class="cls-14" d="M554.68,745.84c0-261.46,670.43-244.66,670.43,0Z"/></g><line class="cls-15" x1="26.61" y1="421.68" x2="643.27" y2="421.68"/><line class="cls-15" x1="26.61" y1="390.66" x2="643.27" y2="390.66"/><rect class="cls-16" x="23.61" y="25.68" width="862" height="679.97" rx="123.53" ry="123.53"/><path d="M105.59,694.29l65-194.57a10,10,0,0,0-7.58-13c-21.66-4.21-38.54-12.92-51.6-26.63C99.85,448,91.52,432.23,85.92,411.9,75.25,373.16,77,325.82,78.51,284.06c.23-6.34.45-12.53.63-18.53l61.43,54.72a10,10,0,0,0,6.65,2.54l42.54-.27h3l42.54.27a10,10,0,0,0,6.65-2.54l61.42-54.72c.18,6,.41,12.19.64,18.53,1.52,41.76,3.25,89.1-7.42,127.84-5.59,20.33-13.93,36.1-25.47,48.21-13.07,13.71-29.95,22.42-51.61,26.63a10,10,0,0,0-7.58,13l65,194.57Z"/><path d="M294.13,287.17c1.47,40.36,2.87,85.65-7.16,122.08-5.14,18.69-12.69,33.07-23.07,44-11.58,12.16-26.72,19.91-46.28,23.71a20,20,0,0,0-15.15,26l60.59,181.4H119.47l60.6-181.4a20,20,0,0,0-15.16-26c-19.55-3.8-34.69-11.55-46.27-23.71-10.38-10.89-17.93-25.27-23.08-44-10-36.43-8.63-81.72-7.16-122.08l45.51,40.55a20,20,0,0,0,13.31,5.07h.12l42.48-.27h2.89l42.48.27h.13a20,20,0,0,0,13.3-5.07l45.51-40.55M313,243.54l-77.72,69.25-42.48-.27v0H189.7v0l-42.48.27L69.5,243.54c.22,85.37-24.86,230.38,91.6,253L91.7,704.29H290.83L221.44,496.56c116.46-22.64,91.38-167.65,91.6-253Z"/><path class="cls-17" d="M600.9,243.54l-77.72,69.25-42.48-.27v0h-3.14v0l-42.48.27-77.72-69.25c.23,85.37-24.85,230.38,91.6,253L379.57,722.29H578.7L509.3,496.56C625.76,473.92,600.68,328.91,600.9,243.54Z"/></g></g><g id="Layer_5" data-name="Layer 5"><path d="M1058.38,351.79q-43.7-1.35-68.32-34.8-23.89-32.79-22.21-86a219.55,219.55,0,0,1,13.76-71.94q12.79-34.12,32.83-52.87,22.45-20.75,46.83-15.06,26.31,6.38,49.25,43.5,12.06,20.09,15.81,55.88a270.29,270.29,0,0,1-2.06,71.61q-6,38.47-20.75,61.9-17.62,28.43-43.21,28.1A5.89,5.89,0,0,1,1058.38,351.79Zm3.13-23.09q17.15-.33,29.21-19.74,11.82-19.08,17.14-51.86a247.35,247.35,0,0,0,1.93-61.57q-2.89-30.45-12.31-45.51-18.82-31.11-39.1-35.8-17.62-4.34-34.52,11.38-16.43,15.39-27.4,44.84a190.26,190.26,0,0,0-12,61.23q-1.21,43.16,17.62,68.59,19.8,27.44,57.45,28.11A5.93,5.93,0,0,1,1061.51,328.7Z"/><path d="M1173.76,96.49q.48,24.09-.73,52.53-1,19.41-2.89,49.52-2.43,40.49-3.14,53.54-1,26.1.48,41.49,1.45,16.05,5.79,23.42,3.87,6.69,12.31,7.36,3.39,0,5.8,3.51a13.88,13.88,0,0,1,2.29,8.37,13.35,13.35,0,0,1-2.78,8.2c-1.77,2.22-3.78,3.23-6,3q-15.93-.68-24.62-15.73-7.48-12.37-9.66-35.13-1.44-17.4-.48-45.51.72-13.71,3.38-54.87,1.93-29.77,2.66-48.52,1.2-27.77.72-50.52a14.67,14.67,0,0,1,2.41-8.53q2.42-3.52,5.92-3.52a7.42,7.42,0,0,1,6,3.35A12.92,12.92,0,0,1,1173.76,96.49Z"/><path d="M1231.52,96.49q.48,24.09-.73,52.53-1,19.41-2.89,49.52-2.42,40.49-3.14,53.54-1,26.1.48,41.49,1.46,16.05,5.8,23.42,3.86,6.69,12.31,7.36,3.38,0,5.79,3.51a13.81,13.81,0,0,1,2.29,8.37,13.34,13.34,0,0,1-2.77,8.2c-1.77,2.22-3.79,3.23-6,3q-15.93-.68-24.62-15.73-7.49-12.37-9.66-35.13-1.44-17.4-.48-45.51.72-13.71,3.38-54.87,1.93-29.77,2.66-48.52,1.2-27.77.72-50.52a14.68,14.68,0,0,1,2.42-8.53q2.4-3.52,5.91-3.52a7.42,7.42,0,0,1,6,3.35A12.92,12.92,0,0,1,1231.52,96.49Z"/><path d="M1287.3,158.72v7.7q-.24,8-.24,19.74-.24,27.78-.36,60.9t-.36,60.9q0,11.71-.25,20.07v7.7a12.91,12.91,0,0,1-2.53,8,7.44,7.44,0,0,1-6,3.34q-3.49,0-5.91-3.51a14.1,14.1,0,0,1-2.41-8.2V327.7q.24-8.37.24-20.08l.48-60.56q0-33.45.24-60.9,0-11.7.24-20.08v-7.69a13.65,13.65,0,0,1,2.54-8.2q2.54-3.51,6-3.34a7.6,7.6,0,0,1,5.92,3.51A14,14,0,0,1,1287.3,158.72Zm-13.88-57q2.53-3.51,6-3.51t6,3.51a15,15,0,0,1,0,16.73q-2.54,3.52-6,3.52t-6-3.52a15.09,15.09,0,0,1,0-16.73Z"/><path d="M1314.77,275.5q-3.62,1.33-5.79,2.34a6.22,6.22,0,0,1-6.52-.33q-3.14-2-4.22-6.7a16.26,16.26,0,0,1,.36-9,9.7,9.7,0,0,1,4.83-6,93.94,93.94,0,0,1,10.13-4q.74-32.12,13.76-58.89,17.63-35.46,48.28-38.14,22.7-2.34,38.14,23.76,12.08,20.75,15,48.85a16.82,16.82,0,0,1-1.57,8.19q-1.82,3.86-5,4.86h-.48a1.69,1.69,0,0,0-1,.33,29.4,29.4,0,0,0-3.62,1c-4.35,1.34-8.77,2.8-13.28,4.35q-22,6.7-40.31,12.72-3.13,1-5.79,1.67-15.45,5.35-26.56,9,1.93,17.4,8.45,29.11,7.72,14.39,21.25,19.07t29-1.17q15.45-5.85,28-20.25c1.77-2.22,3.83-3.17,6.16-2.84a7.82,7.82,0,0,1,5.67,4.18,15,15,0,0,1,1.93,8.54,12.43,12.43,0,0,1-2.89,7.86q-15.45,18.06-34.88,25.26t-37.06,1.17q-19.3-6.69-30.65-27.77Q1317.66,297.25,1314.77,275.5ZM1410.36,220a85.32,85.32,0,0,0-9.65-26.44q-9.92-16.72-23.9-15.72-22.45,2.34-35.49,28.44a108.36,108.36,0,0,0-10.62,39.15q9.9-3.34,23.18-7.7a54.81,54.81,0,0,0,5.79-1.67Q1378,230,1400,223,1405.29,221.29,1410.36,220Z"/><path d="M1531.05,171.44q36-23.76,58.18-22.08,23.18,2,34,30.44,7.24,19.41,9.42,54.88,4.33,2.34,8.69,5a10.6,10.6,0,0,1,4.34,6.52,15.14,15.14,0,0,1-.24,8.87,10.56,10.56,0,0,1-4.71,6.19,5.78,5.78,0,0,1-6.39-.17,3.47,3.47,0,0,0-.73-.67q.24,11,.24,24.43,0,13.72-.48,45.5a40.05,40.05,0,0,1-.24,4.69,12.92,12.92,0,0,1-2.54,8,7.41,7.41,0,0,1-6,3.34c-2.33,0-4.31-1.17-5.91-3.51a14.63,14.63,0,0,1-2.42-8.53,31.69,31.69,0,0,0,.24-4.35q0-12,.24-18.4a15.24,15.24,0,0,1-2.65,3.34,41.78,41.78,0,0,0-3.38,3q-.48.67-4.22,4.52c-2.5,2.57-4.15,4.18-5,4.85a77.79,77.79,0,0,1-17.62,13.05,67.85,67.85,0,0,1-27.52,7.36q-12.8.68-22-6.86t-12.79-22.25a71.39,71.39,0,0,1-1.09-27.27,93.17,93.17,0,0,1,8.57-27.94q14.49-30.1,42-38.48,20.28-6.34,43.93,1.68-1.93-23.09-6.75-35.8-6.52-16.74-20-18.07-17.87-1.34-49.73,19.74a6.5,6.5,0,0,1-6.51.5,9.06,9.06,0,0,1-4.83-5.85,16.29,16.29,0,0,1-.36-9Q1527.91,173.45,1531.05,171.44Zm85.45,80q-22.93-9.36-41.76-3.68-21,6.36-31.62,28.77-9.42,19.08-5.55,34.8,1.68,6.36,5.55,9.37,4.59,4.35,12.55,3.68a62.11,62.11,0,0,0,22.45-5.69,65.65,65.65,0,0,0,13.76-10.37c.48-.67,2-2.28,4.47-4.85a53.34,53.34,0,0,1,4.7-4.52q2.42-2.34,4.35-4a6.53,6.53,0,0,1,6.28-1.34,8,8,0,0,1,5.06,5q.24-6.69.25-13.72Q1617,265.46,1616.5,251.41Z"/><path d="M1690.15,159.39v23.09q11.34-12.71,21-19.74,25.11-17.73,41.76,1,14.71,16.06,21,61.57,5.55,40.49,5.79,109.41a13.46,13.46,0,0,1-2.53,8.37,7.41,7.41,0,0,1-6,3.34,7.11,7.11,0,0,1-5.92-3.34,13.93,13.93,0,0,1-2.41-8.37q-.25-66.92-5.55-105.06-5.07-36.81-15-47.85-3.87-4.34-8.93-4-6,0-14.49,6-12.3,8.7-28.48,29.44v35.81q.24,33.45.48,61.56v28.11a14.14,14.14,0,0,1-2.41,8.2q-2.42,3.51-5.91,3.51a7.42,7.42,0,0,1-6-3.35,13.45,13.45,0,0,1-2.53-8.36V310.63q-.26-28.11-.49-61.56V236.69l-2.41,3.34q-2.41,3.69-5.91,3.85t-6-3.18a13.83,13.83,0,0,1-2.66-8.2,13.11,13.11,0,0,1,2.3-8.19q7.47-11.38,14.72-21.08-.24-7.69-.24-15.73V159.39a14,14,0,0,1,2.42-8.19c1.6-2.35,3.58-3.52,5.91-3.52a7.41,7.41,0,0,1,6,3.35A13.45,13.45,0,0,1,1690.15,159.39Z"/><path d="M1893,332.05q-22.21,12-41,10.2t-33.07-16.89q-12.55-13-18.95-33.3a120.23,120.23,0,0,1-5.43-42q1.2-23.08,10.74-40.49t25.71-24.42q26.05-11.72,63.24,7-.24-15.37-.24-64.57V89.46a14.14,14.14,0,0,1,2.41-8.2q2.42-3.51,5.92-3.51a7.42,7.42,0,0,1,6,3.35,13.45,13.45,0,0,1,2.54,8.36v37.81q0,30.8.24,74.62,7.23,4.68,14.72,10.37a11.18,11.18,0,0,1,4.1,7,15.6,15.6,0,0,1-.72,9q-1.7,4.35-5.07,5.69a6.39,6.39,0,0,1-6.52-1q-3.37-2.69-6.51-5v66.58q.23,16.06.24,27.77v10.38a13.62,13.62,0,0,1-2.54,8.19q-2.54,3.52-6,3.52t-5.92-3.52a14.09,14.09,0,0,1-2.41-8.19v-2Zm1.21-114.77a118.16,118.16,0,0,0-25.83-11q-18.83-5-32.35,1-10.86,5-17.26,16.73t-7.36,27.77a87.45,87.45,0,0,0,4,30.62q4.7,14.89,13.63,24.59A37.94,37.94,0,0,0,1852.17,319q15.69,1.68,34.27-8.7,4.11-2.34,8,1-.24-10.37-.24-16.73Z"/><path d="M2044.07,338.74v-35.8q.24-35.47.48-78.3T2045,146v-35.8q0-6.36,3.75-9.54t7.84-1.34c2.73,1.23,4.43,4,5.07,8.2a288.34,288.34,0,0,0,7.72,31.12,493.38,493.38,0,0,0,23.42,60.56q10.86,23.76,23.66,47.18,2.16,4,4.1,7.36a100.83,100.83,0,0,0,5.55-10.37,613.22,613.22,0,0,0,26.55-59.23,605.11,605.11,0,0,0,25.83-82c.81-4,2.57-6.58,5.31-7.7s5.27-.55,7.61,1.67,3.5,5.47,3.5,9.71v10q0,11,.24,26.43,0,36.46.24,80.47t.48,80.47q0,15.39.24,26.43v10a13.93,13.93,0,0,1-2.41,8.37,7.13,7.13,0,0,1-5.91,3.34,7.44,7.44,0,0,1-6-3.34,12.91,12.91,0,0,1-2.53-8V329.7Q2179,319,2179,303.27q-.26-36.47-.49-80.3,0-33.79-.24-56.89-4.83,14.73-10.62,29.45a648.72,648.72,0,0,1-27.76,61.57q-4.59,9-9.17,17.06c-.81,1.56-1.61,3-2.42,4.35a5.49,5.49,0,0,0-.72,1.34.66.66,0,0,1-.48.33c-1.61,2.91-3.75,4.35-6.4,4.35s-4.79-1.44-6.4-4.35c-.16,0-.48-.44-1-1.33q-1-1.68-2.17-4-3.87-6.69-8.21-14.39-13.28-24.09-24.38-48.51-9.66-21.42-16.9-40.83,0,18.08-.24,53.54-.24,42.84-.48,78.63v35.47a15.29,15.29,0,0,1-2.66,8.36,7.12,7.12,0,0,1-5.91,3.35q-3.51,0-6-3.51A12.52,12.52,0,0,1,2044.07,338.74Z"/><path d="M2224.75,171.44q36-23.76,58.17-22.08,23.17,2,34,30.44,7.24,19.41,9.41,54.88,4.35,2.34,8.69,5a10.62,10.62,0,0,1,4.35,6.52,15.22,15.22,0,0,1-.24,8.87,10.56,10.56,0,0,1-4.71,6.19,5.8,5.8,0,0,1-6.4-.17,3.16,3.16,0,0,0-.72-.67q.24,11,.24,24.43,0,13.72-.48,45.5a39.86,39.86,0,0,1-.25,4.69,12.91,12.91,0,0,1-2.53,8,7.41,7.41,0,0,1-6,3.34q-3.51,0-5.92-3.51a14.69,14.69,0,0,1-2.41-8.53,31.69,31.69,0,0,0,.24-4.35q0-12,.24-18.4a15.54,15.54,0,0,1-2.65,3.34,41.78,41.78,0,0,0-3.38,3c-.33.45-1.73,2-4.23,4.52s-4.14,4.18-4.95,4.85a77.57,77.57,0,0,1-17.62,13.05,67.81,67.81,0,0,1-27.52,7.36q-12.8.68-22-6.86t-12.8-22.25a71.4,71.4,0,0,1-1.08-27.27,92.88,92.88,0,0,1,8.57-27.94q14.47-30.1,42-38.48,20.28-6.34,43.93,1.68-1.93-23.09-6.76-35.8-6.51-16.74-20-18.07-17.86-1.34-49.73,19.74a6.52,6.52,0,0,1-6.52.5,9.07,9.07,0,0,1-4.82-5.85,16.39,16.39,0,0,1-.37-9C2221.25,175,2222.65,172.78,2224.75,171.44Zm85.45,80q-22.93-9.36-41.76-3.68-21,6.36-31.62,28.77-9.42,19.08-5.56,34.8,1.69,6.36,5.56,9.37,4.57,4.35,12.55,3.68a62.11,62.11,0,0,0,22.45-5.69,65.9,65.9,0,0,0,13.76-10.37c.48-.67,2-2.28,4.46-4.85a54.34,54.34,0,0,1,4.71-4.52c1.61-1.56,3.05-2.9,4.34-4a6.54,6.54,0,0,1,6.28-1.34q3.38,1,5.07,5,.24-6.69.24-13.72Q2310.68,265.46,2310.2,251.41Z"/><path d="M2383.84,159.39v23.09q11.35-12.71,21-19.74,25.11-17.73,41.77,1,14.71,16.06,21,61.57,5.55,40.49,5.79,109.41a13.52,13.52,0,0,1-2.53,8.37,7.43,7.43,0,0,1-6,3.34,7.09,7.09,0,0,1-5.91-3.34,13.93,13.93,0,0,1-2.42-8.37q-.24-66.92-5.55-105.06-5.07-36.81-15-47.85-3.86-4.34-8.93-4-6,0-14.48,6-12.32,8.7-28.48,29.44v35.81q.22,33.45.48,61.56v28.11a14.15,14.15,0,0,1-2.42,8.2q-2.42,3.51-5.91,3.51a7.42,7.42,0,0,1-6-3.35,13.45,13.45,0,0,1-2.54-8.36V310.63q-.24-28.11-.48-61.56V236.69l-2.42,3.34q-2.42,3.69-5.91,3.85t-6-3.18a13.77,13.77,0,0,1-2.66-8.2,13.1,13.1,0,0,1,2.29-8.19q7.48-11.38,14.73-21.08-.24-7.69-.24-15.73V159.39a14.09,14.09,0,0,1,2.41-8.19q2.41-3.52,5.91-3.52a7.42,7.42,0,0,1,6,3.35A13.45,13.45,0,0,1,2383.84,159.39Z"/><path d="M2507.22,375.21a1.17,1.17,0,0,0,.24.67,11.9,11.9,0,0,0,2.89,2.68q10.14,7.35,31.87,8.36,22,.68,38.62-5.69,7.72-3,11.59-6.69a7.16,7.16,0,0,0,1.93-2.68,14.89,14.89,0,0,0-3.62-10.37q-4.83-6-14.73-9.7-24.37-8.37-59.62,3-5.07,1.67-8.45-4.18a14.27,14.27,0,0,1-1-12.55,4.46,4.46,0,0,0,.48-1c.32-1.12.72-2.35,1.21-3.68q1.92-7,3.62-14.73a223.18,223.18,0,0,0,4.34-28.77q-17.39-14.73-22.93-39.15a79.28,79.28,0,0,1,.6-37.14,76.47,76.47,0,0,1,17.26-32.46q8-9.36,15-14a39.88,39.88,0,0,1,18.34-8q19.32-2.67,43.7,16.06l.24-.34h.24l.24-.33.24-.33.24-.34h.24l.25-.33.24-.34.24-.33h.24l.24-.34.24-.33h.24v-.34l.24-.33h.25l.24-.34.24-.33.24-.33h.24l.24-.34.24-.33.49-.34,6.52-7,2.17-2a7.73,7.73,0,0,0,1-1c1.93-2,4-2.73,6.28-2.17a8.94,8.94,0,0,1,5.55,4.68,13.44,13.44,0,0,1,1.57,8.54,14,14,0,0,1-3.26,7.69,7.21,7.21,0,0,1-1,1l-2.18,2-.24.34-.24.33-.24.34-.24.33-.24.33h-.25l-.24.34-.24.33h-.24l-.24.34-.24.33-.24.34h-.24v.33h-.25l-.24.34h-.24v.33h-.24l-.24.34-.24.33-.24.34h-.25l-.24.33-.24.34H2605l-.24.33-.24.33-.24.34-4.83,5q8,23.76,8,44.83,0,24.76-10.86,41.83-10.14,16.06-26.79,21.25t-35.25-1.17a17.52,17.52,0,0,0-1.69-.67,226.94,226.94,0,0,1-4.34,26.1L2528,328q29.92-6.69,52.14,1,14,5,22,15,9.66,12,9.18,28.44a29.25,29.25,0,0,1-9.18,21.08q-6.27,6-16.89,10-18.84,7.37-43.45,6.69-25.59-1-39.11-11a28.74,28.74,0,0,1-11.83-18.4q-2.41-12.39,5.31-25.43a8.47,8.47,0,0,1,5.92-4.18q3.49-.51,6.15,2.67a13.18,13.18,0,0,1,2.9,8,15,15,0,0,1-1.93,8.54,14.85,14.85,0,0,0-1.93,4.35Zm74.59-178.34q-20.52-16.73-35.25-14.39-10.86,1.34-24.38,16.73a52.06,52.06,0,0,0-11.83,21.42,48.14,48.14,0,0,0,9.78,43.66,44.08,44.08,0,0,0,18.47,12.88q14.47,4.69,26.43,1.34a31.52,31.52,0,0,0,18.71-14.05q6.75-10.71,6.76-26.44Q2590.5,219.63,2581.81,196.87Z"/><path d="M2702.16,345.1q-35.47-1-55.52-25.1-20-24.75-18.59-64.58a146.43,146.43,0,0,1,11.35-53.37q10.62-25.26,27-38.64,18.33-15.39,38.14-11,21.48,4.35,40.07,31.78,10.13,14.73,13.39,41.49a175.79,175.79,0,0,1-1.57,53.21q-5.07,28.44-17.38,45.84-14.48,21.07-35.48,20.74A3.47,3.47,0,0,1,2702.16,345.1Zm2.42-23.09q13.26-.33,22.44-13.39,8.94-13,13-35.46a155.09,155.09,0,0,0,1.45-42.16q-2.18-20.75-9.17-30.79-14.49-21.4-30.42-24.76-13.76-3-26.79,8-12.81,10.38-21.25,30.62a115.5,115.5,0,0,0-8.93,42.33q-1,28.77,13,45.84,15.44,19.07,45.14,19.4A3.53,3.53,0,0,1,2704.58,322Z"/><path d="M2791.18,97a8.11,8.11,0,0,1,8.33,1q4,2.85,5.31,8.87a18.78,18.78,0,0,1-.84,11.38q-3.39,9-11,24.26t-10.5,13.21a4,4,0,0,1-1.2-2.67,7.15,7.15,0,0,1,1-3.18,28.26,28.26,0,0,1,2.18-3.52l2.77-3.84a20.69,20.69,0,0,0,2.29-3.85c1.45-3.35,2.14-6,2.06-8a6.91,6.91,0,0,0-1.33-4.35l-1-1.68a14.41,14.41,0,0,1-5.43-8.86,19,19,0,0,1,.85-11.38C2786.11,100.67,2788.29,98.22,2791.18,97Z"/><path d="M2902.85,189.84a6.15,6.15,0,0,1-6,.17,9.37,9.37,0,0,1-4.34-5.19,6.39,6.39,0,0,0-1.45-1.34,34.42,34.42,0,0,0-7.72-3,52.8,52.8,0,0,0-24.38-1q-14,2.68-21.49,10.37-7.48,8-7,20.75a13.13,13.13,0,0,0,7.24,11.37q6,3.69,23.66,7a24.19,24.19,0,0,0,2.9.33q10.13,2,16.17,3.69a60.49,60.49,0,0,1,15.21,7.36q17.61,12.72,17.14,40.48-.49,30.45-15.45,47.85a45.16,45.16,0,0,1-32.11,16.06,53.06,53.06,0,0,1-33.31-9.37A54.83,54.83,0,0,1,2809,303.27a14.37,14.37,0,0,1,0-9,10.54,10.54,0,0,1,4.7-6.19,5.81,5.81,0,0,1,6.4.16,11.6,11.6,0,0,1,4.59,6.36q3.38,12,14.84,19.74a39.71,39.71,0,0,0,24.75,7q13.76-1,22.2-10.71,9.18-10.69,9.42-30.11.24-13.38-8-19.41-7-5-25.83-8.36a12.82,12.82,0,0,0-2.89-.67q-9.66-1.68-14.49-3a49.51,49.51,0,0,1-13.51-5.36q-16.42-9.36-17.63-31.45-1.2-25.42,13.76-41.16,11.1-11.37,29.45-14.72a70.83,70.83,0,0,1,29.94,1,47.32,47.32,0,0,1,11.58,5,21.65,21.65,0,0,1,9.17,12,16.28,16.28,0,0,1-.12,9A11,11,0,0,1,2902.85,189.84Z"/><path d="M965.44,640.39h.24v-1l.24-.34v-.33l.24-.34v-.66l1.94-7,6.27-25.43,12.55-49.52c-2.09-1.56-3.46-4-4.1-7.36a15.15,15.15,0,0,1,.72-8.87,9.24,9.24,0,0,1,5.07-5.52,33.74,33.74,0,0,0,4.35-1.67l1.21-4.35,19.55-77.3.24-.66v-.67l.24-.67v-.34l.24-.67.24-.33v-.67l.25-.67v-.33l.24-.34v-.67l.24-.33v-.67l.24-.34V443l.24-.67v-.67l.24-.33V441l.24-.67v-.67l.25-.33V439l.24-.33V438l.24-.34V437l.24-.34V436l.24-.33V435l.24-.34v-.67l.24-.33v-.34l.24-.33v-1h.25v-.67l.24-.34v-.67l.24-.33v-.67l.24-.33v-.67h.24v-.67l.24-.34v-.67l.24-.33v-.67l.25-.67q1-4,1.69-7a10.17,10.17,0,0,0,.72-2.67q1.94-7.69,8-7.7h12.79c3.22,0,6.11-.11,8.69-.33h4.1a6.87,6.87,0,0,1,5,2.34,11.54,11.54,0,0,1,3,6,10.43,10.43,0,0,1,.72,2.34c.32,2,.81,4.47,1.45,7.36l6,25.43,18.1,78,17.86,77.62,6,25.43c.64,2.9,1.12,5.36,1.45,7.36a10.2,10.2,0,0,0,.72,2.35,16.46,16.46,0,0,1-.6,9,9.55,9.55,0,0,1-5,5.86,6.09,6.09,0,0,1-6.4-.67,11.68,11.68,0,0,1-4.22-6.86,14.08,14.08,0,0,0-.49-2.68q-.72-2.67-1.68-7l-6-25.76-15.45-67.59q-32.58-5.34-71,6.69L990.3,613,984,638.38l-1.93,7.37-.73,2.34a9.68,9.68,0,0,1-4.22,6.69,6.52,6.52,0,0,1-6.52.5c-2.17-1-3.74-3-4.71-5.85A17.27,17.27,0,0,1,965.44,640.39Zm46.83-113.76q31.14-8,58.66-5L1056.2,458l-5.79-25.77-.24-.33v-.67l-.24-.67a3,3,0,0,1-1.09.33h-12.19a1.17,1.17,0,0,0-.24.67,7.39,7.39,0,0,0-.24,1.34l-.24.33v.67l-.25.34v.33l-.24.67V436l-.24.34V437l-.24.33v.33l-.24.34v.67l-.24.33v.67l-.24.34v.67l-.24.33v.67l-.25.34v.66h-.24v1h-.24v.67l-.24.33v1h-.24v.66l-.24.34v.67l-.24.33v.67l-.25.34V449l-.24.34V450l-.24.33v1h-.24V452l-.24.34V453l-.24.33v.34l-.24.33v1l-.25.34V456l-.24.33V457l-.24.34v.33l-.24.34v.33Z"/><path d="M1140.59,467.74a300.34,300.34,0,0,0,7.24,64.24,376.23,376.23,0,0,0,16.42,53.54,363.07,363.07,0,0,0,16.41,36.13,5.68,5.68,0,0,1,.72,1.34,233.09,233.09,0,0,0,11.35-27.43,329.22,329.22,0,0,0,12.07-44.51,346.89,346.89,0,0,0,5.55-49.85v-7a16.51,16.51,0,0,1,1-5.69q2.4-7,8-6.69c2.25,0,4.19,1.17,5.8,3.52a14.16,14.16,0,0,1,2.41,8.19q0,4-.24,8a312.09,312.09,0,0,0,5.31,52.87,256.08,256.08,0,0,0,11.59,43.5,196.7,196.7,0,0,0,9.41,22.08,1.17,1.17,0,0,1,.24-.67q7.73-18.39,14.48-38.48a522.51,522.51,0,0,0,14-53.53,363.52,363.52,0,0,0,6.75-62.24,12.92,12.92,0,0,1,2.54-8,7.41,7.41,0,0,1,6-3.34c2.33,0,4.31,1.17,5.92,3.51a14.77,14.77,0,0,1,2.41,8.53,379.22,379.22,0,0,1-7.48,67.59,501.53,501.53,0,0,1-15,57.22q-6.75,21.08-15.21,40.82c-1.77,4-3.46,7.81-5.06,11.37-.49,1.12-1,2.13-1.45,3a4.89,4.89,0,0,1-.49,1c-1.44,3.12-3.5,4.85-6.15,5.19s-5-.84-6.88-3.52l-.48-.67a20.28,20.28,0,0,1-1.45-2.34q-1.93-3.35-4.35-7.36a262.76,262.76,0,0,1-13-29.44,302,302,0,0,1-10.86-37.81,315.68,315.68,0,0,1-10.14,35.13,256.44,256.44,0,0,1-13.52,32.12c-1.61,3.13-3.14,6-4.59,8.7a9.53,9.53,0,0,0-1.2,2.34c-.17.22-.33.34-.49.34q0,.33-.24.33-2.42,4-6.27,4t-6.28-4h-.24v-.33c-.16-.23-.33-.45-.48-.67a25.33,25.33,0,0,0-1.69-2.68c-1.93-3.35-3.87-6.91-5.8-10.71a381.8,381.8,0,0,1-17.62-38.81A373.83,373.83,0,0,1,1131.9,539a327.26,327.26,0,0,1-8.21-71.27,13.48,13.48,0,0,1,2.54-8.37,7.44,7.44,0,0,1,6-3.34,7.16,7.16,0,0,1,5.92,3.34A14,14,0,0,1,1140.59,467.74Z"/><path d="M1325.52,580.5q-3.63,1.34-5.8,2.34a6.21,6.21,0,0,1-6.51-.33q-3.14-2-4.23-6.7a16.35,16.35,0,0,1,.37-9,9.72,9.72,0,0,1,4.82-6,94.28,94.28,0,0,1,10.14-4q.72-32.12,13.76-58.89,17.63-35.46,48.28-38.14,22.68-2.34,38.14,23.76,12.06,20.75,15,48.85a16.82,16.82,0,0,1-1.56,8.19q-1.82,3.86-5,4.86h-.49a1.69,1.69,0,0,0-1,.33,28.92,28.92,0,0,0-3.62,1c-4.35,1.34-8.78,2.8-13.28,4.35q-22,6.71-40.31,12.72-3.13,1-5.79,1.67-15.45,5.35-26.56,9,1.93,17.4,8.45,29.11,7.72,14.38,21.24,19.07t29-1.17q15.45-5.85,28-20.25,2.65-3.33,6.16-2.84a7.82,7.82,0,0,1,5.67,4.18,15,15,0,0,1,1.93,8.53,12.44,12.44,0,0,1-2.9,7.87Q1424,637,1404.57,644.24t-37,1.17q-19.32-6.69-30.66-27.77Q1328.42,602.25,1325.52,580.5ZM1421.11,525a85.07,85.07,0,0,0-9.66-26.44q-9.9-16.72-23.89-15.72-22.45,2.34-35.49,28.44a108.36,108.36,0,0,0-10.62,39.15q9.9-3.35,23.17-7.7a57.47,57.47,0,0,0,5.8-1.67q18.33-6,40.31-13Q1416,526.29,1421.11,525Z"/><path d="M1551.19,494.84a6.13,6.13,0,0,1-6,.17,9.42,9.42,0,0,1-4.35-5.19,6,6,0,0,0-1.45-1.34,34.22,34.22,0,0,0-7.72-3,52.78,52.78,0,0,0-24.38-1q-14,2.68-21.48,10.37-7.48,8-7,20.75A13.11,13.11,0,0,0,1486,527q6,3.69,23.65,7a24.41,24.41,0,0,0,2.9.33q10.14,2,16.17,3.69a60.32,60.32,0,0,1,15.21,7.36q17.63,12.72,17.14,40.48-.49,30.45-15.45,47.85a45.12,45.12,0,0,1-32.1,16.06,53.07,53.07,0,0,1-33.32-9.37,54.87,54.87,0,0,1-22.93-32.12,14.51,14.51,0,0,1,0-9,10.56,10.56,0,0,1,4.71-6.19,5.81,5.81,0,0,1,6.4.16,11.54,11.54,0,0,1,4.58,6.36q3.38,12,14.85,19.74a39.7,39.7,0,0,0,24.74,7q13.76-1,22.21-10.71,9.17-10.7,9.41-30.11.24-13.38-8-19.41-7-5-25.83-8.36a12.8,12.8,0,0,0-2.9-.67q-9.66-1.68-14.48-3a49.72,49.72,0,0,1-13.52-5.36q-16.43-9.36-17.62-31.45-1.22-25.42,13.76-41.16,11.1-11.37,29.45-14.72a70.78,70.78,0,0,1,29.93,1,47.4,47.4,0,0,1,11.59,5,21.74,21.74,0,0,1,9.17,12.05,16.46,16.46,0,0,1-.12,9A11,11,0,0,1,1551.19,494.84Z"/><path d="M1651,650.1q-35.49-1-55.52-25.1-20-24.75-18.59-64.58a146,146,0,0,1,11.35-53.37q10.62-25.26,27-38.64,18.35-15.39,38.14-11,21.48,4.35,40.07,31.78,10.14,14.73,13.4,41.49a176.12,176.12,0,0,1-1.57,53.21q-5.07,28.44-17.38,45.84-14.48,21.07-35.48,20.74A3.6,3.6,0,0,1,1651,650.1Zm2.41-23.09q13.27-.33,22.45-13.39,8.92-13.05,13-35.46a155.49,155.49,0,0,0,1.45-42.16q-2.18-20.75-9.18-30.79-14.48-21.4-30.41-24.76-13.77-3-26.8,8-12.79,10.38-21.24,30.62a115.5,115.5,0,0,0-8.93,42.33q-1,28.77,13,45.84,15.45,19.07,45.14,19.4A3.45,3.45,0,0,1,1653.44,627Z"/><path d="M1753.59,464.39v.34a7.41,7.41,0,0,1-.24,1.67v5.69c0,6.92-.08,12-.24,15.39q11.34-12.71,21-19.74,24.86-17.73,41,1.67,10.14,12,15.93,38.82,23.18-31.12,39.59-40.49,23.17-13,36.21,13.05,9.4,18.73,12.31,63.57,2.4,34.8,1.45,97.37a14.77,14.77,0,0,1-2.78,8.37,7,7,0,0,1-6,3.17,7.48,7.48,0,0,1-5.91-3.68,12.87,12.87,0,0,1-2.17-8.19q1-61.56-1.21-94.7-2.65-38.81-9.65-52.53-2.67-5.69-5.8-6.69-3.86-1.34-10.14,2-15.69,9-41.52,46.17,4.59,39.15,4.83,105.07a13.45,13.45,0,0,1-2.53,8.36,8,8,0,0,1-6,3.52q-3.5.17-5.91-3.35a14.11,14.11,0,0,1-2.42-8.2q-.24-67.57-5.06-105.4-4.85-37.47-14-48.51-3.62-4.35-8.44-4.35-5.8,0-14,5.68-12.31,9-29,30.79v4l-.24.34v18.74l-.24.33v10.37q-.5,33.13-.73,60.9-.24,11.71-.24,20.07a56.8,56.8,0,0,1-.24,5.69v2a12.9,12.9,0,0,1-2.54,8,7.42,7.42,0,0,1-6,3.35q-3.51,0-5.91-3.52a14.1,14.1,0,0,1-2.42-8.19v-2c.16-1.56.24-3.46.24-5.69l.24-20.08.73-60.89v-9.37l-1,1.34c-1.61,2.45-3.58,3.74-5.91,3.84s-4.35-.94-6-3.17a13.78,13.78,0,0,1-2.65-8.2,13.13,13.13,0,0,1,2.29-8.2q7.24-11,13.76-20.07.24-8.7.24-17.4v-6.36l.24-.34V465.73a14.62,14.62,0,0,0,.25-1.67,13.48,13.48,0,0,1,2.53-8.37,7.44,7.44,0,0,1,6-3.34q3.51,0,5.92,3.51A14.69,14.69,0,0,1,1753.59,464.39Z"/><path d="M1948.13,580.5q-3.63,1.34-5.8,2.34a6.23,6.23,0,0,1-6.52-.33q-3.13-2-4.22-6.7a16.45,16.45,0,0,1,.36-9,9.77,9.77,0,0,1,4.83-6,93.42,93.42,0,0,1,10.14-4q.72-32.12,13.76-58.89,17.61-35.46,48.28-38.14,22.68-2.34,38.13,23.76,12.08,20.75,15,48.85a16.71,16.71,0,0,1-1.57,8.19,8.43,8.43,0,0,1-4.95,4.86h-.48a1.74,1.74,0,0,0-1,.33,29.89,29.89,0,0,0-3.62,1c-4.34,1.34-8.77,2.8-13.27,4.35q-22,6.71-40.31,12.72-3.15,1-5.8,1.67-15.45,5.35-26.55,9,1.93,17.4,8.45,29.11,7.73,14.38,21.24,19.07t29-1.17q15.43-5.85,28-20.25,2.65-3.33,6.15-2.84a7.83,7.83,0,0,1,5.68,4.18,15,15,0,0,1,1.93,8.53,12.44,12.44,0,0,1-2.9,7.87q-15.45,18.06-34.88,25.26t-37,1.17q-19.32-6.69-30.66-27.77Q1951,602.25,1948.13,580.5ZM2043.72,525a85.58,85.58,0,0,0-9.66-26.44q-9.9-16.72-23.9-15.72-22.44,2.34-35.48,28.44a108.16,108.16,0,0,0-10.62,39.15q9.89-3.35,23.17-7.7A57.3,57.3,0,0,0,1993,541q18.35-6,40.32-13C2036.87,526.85,2040.34,525.85,2043.72,525Z"/><path d="M2152.34,640.39h.24v-1l.24-.34v-.33l.24-.34v-.66l1.93-7,6.28-25.43,12.55-49.52c-2.09-1.56-3.46-4-4.1-7.36a15,15,0,0,1,.72-8.87,9.21,9.21,0,0,1,5.07-5.52,33.74,33.74,0,0,0,4.35-1.67l1.2-4.35,19.55-77.3.25-.66v-.67l.24-.67v-.34l.24-.67.24-.33v-.67l.24-.67v-.33l.24-.34v-.67l.24-.33v-.67l.25-.34V443l.24-.67v-.67l.24-.33V441l.24-.67v-.67l.24-.33V439l.24-.33V438l.24-.34V437l.25-.34V436l.24-.33V435l.24-.34v-.67l.24-.33v-.34l.24-.33v-1h.24v-.67l.24-.34v-.67l.25-.33v-.67l.24-.33v-.67h.24v-.67l.24-.34v-.67l.24-.33v-.67l.24-.67c.64-2.68,1.21-5,1.69-7a10.34,10.34,0,0,0,.73-2.67q1.92-7.69,8-7.7h12.8q4.82,0,8.69-.33h4.1a6.87,6.87,0,0,1,5,2.34,11.61,11.61,0,0,1,3,6,11,11,0,0,1,.72,2.34c.32,2,.8,4.47,1.45,7.36l6,25.43,18.11,78,17.86,77.62,6,25.43c.65,2.9,1.13,5.36,1.45,7.36a9.49,9.49,0,0,0,.73,2.35,16.37,16.37,0,0,1-.61,9,9.49,9.49,0,0,1-5,5.86,6.07,6.07,0,0,1-6.39-.67,11.69,11.69,0,0,1-4.23-6.86,14.63,14.63,0,0,0-.48-2.68c-.48-1.78-1.05-4.12-1.69-7l-6-25.76-15.45-67.59q-32.6-5.34-71,6.69L2177.2,613l-6.28,25.43-1.93,7.37-.72,2.34c-.65,3.12-2.05,5.35-4.23,6.69a6.5,6.5,0,0,1-6.51.5c-2.18-1-3.74-3-4.71-5.85A17.17,17.17,0,0,1,2152.34,640.39Zm46.83-113.76q31.14-8,58.65-5L2243.1,458l-5.79-25.77-.25-.33v-.67l-.24-.67a2.94,2.94,0,0,1-1.08.33h-12.19a1.17,1.17,0,0,0-.24.67,6.84,6.84,0,0,0-.25,1.34l-.24.33v.67l-.24.34v.33l-.24.67V436l-.24.34V437l-.24.33v.33l-.24.34v.67l-.25.33v.67l-.24.34v.67l-.24.33v.67l-.24.34v.66h-.24v1h-.24v.67l-.24.33v1h-.25v.66l-.24.34v.67l-.24.33v.67l-.24.34V449l-.24.34V450l-.24.33v1h-.24V452l-.24.34V453l-.25.33v.34l-.24.33v1l-.24.34V456l-.24.33V457l-.24.34v.33l-.24.34v.33Z"/><path d="M2408.09,637.05q-22.22,12-41,10.2T2334,630.35q-12.55-13.05-18.95-33.29a120.23,120.23,0,0,1-5.43-42q1.2-23.09,10.74-40.49t25.71-24.42q26.07-11.71,63.24,7-.24-15.37-.24-64.57V394.46a14.15,14.15,0,0,1,2.42-8.2c1.6-2.34,3.58-3.51,5.91-3.51a7.45,7.45,0,0,1,6,3.35,13.51,13.51,0,0,1,2.53,8.36v37.81q0,30.8.24,74.62,7.24,4.68,14.73,10.37a11.22,11.22,0,0,1,4.1,7,15.77,15.77,0,0,1-.72,9q-1.7,4.35-5.07,5.69a6.38,6.38,0,0,1-6.52-1q-3.39-2.68-6.52-5v66.58q.24,16.06.24,27.77v10.38a13.62,13.62,0,0,1-2.53,8.19c-1.69,2.35-3.71,3.52-6,3.52s-4.3-1.17-5.91-3.52a14.1,14.1,0,0,1-2.42-8.19v-2Zm1.2-114.77a118.3,118.3,0,0,0-25.82-11q-18.84-5-32.35,1-10.86,5-17.26,16.73t-7.36,27.77a87.21,87.21,0,0,0,4,30.62q4.71,14.89,13.64,24.59a37.91,37.91,0,0,0,23.17,12q15.69,1.68,34.28-8.7,4.09-2.34,8,1-.24-10.37-.24-16.73Z"/><path d="M2476,467.74a300.34,300.34,0,0,0,7.24,64.24,377.46,377.46,0,0,0,16.41,53.54,365.4,365.4,0,0,0,16.42,36.13h.24l.24-.33q7.72-18.39,14.24-38.48a445.63,445.63,0,0,0,14-53.87,327.81,327.81,0,0,0,6.76-61.9,14.17,14.17,0,0,1,2.78-8,7.42,7.42,0,0,1,6-3.35c2.33,0,4.31,1.17,5.92,3.52a13.55,13.55,0,0,1,2.17,8.53,364,364,0,0,1-7.24,67.59,486.22,486.22,0,0,1-15,56.88q-7,21.42-15.21,41.16c-1.77,4-3.46,7.81-5.07,11.37-.48,1.12-1,2.12-1.44,3a4.76,4.76,0,0,1-.49,1q-2.42,4.68-6.51,5t-6.76-4q-.24,0-.24-.33l-.49-.67a23.81,23.81,0,0,0-1.69-2.68c-1.93-3.35-3.86-6.91-5.79-10.71A381.8,381.8,0,0,1,2485,596.56,372.73,372.73,0,0,1,2467.35,539a326.64,326.64,0,0,1-8.21-71.27,13.48,13.48,0,0,1,2.53-8.37,7.44,7.44,0,0,1,6-3.34,7.13,7.13,0,0,1,5.91,3.34A14,14,0,0,1,2476,467.74Z"/><path d="M2588.55,580.5q-3.63,1.34-5.8,2.34a6.21,6.21,0,0,1-6.51-.33c-2.09-1.34-3.51-3.57-4.23-6.7a16.45,16.45,0,0,1,.36-9,9.77,9.77,0,0,1,4.83-6,93.42,93.42,0,0,1,10.14-4q.72-32.12,13.76-58.89,17.61-35.46,48.28-38.14,22.68-2.34,38.14,23.76,12.06,20.75,15,48.85a16.71,16.71,0,0,1-1.57,8.19,8.43,8.43,0,0,1-4.95,4.86h-.48a1.69,1.69,0,0,0-1,.33,28.92,28.92,0,0,0-3.62,1c-4.35,1.34-8.78,2.8-13.28,4.35q-22,6.71-40.31,12.72-3.15,1-5.8,1.67-15.45,5.35-26.55,9,1.93,17.4,8.45,29.11,7.73,14.38,21.24,19.07t29-1.17q15.45-5.85,28-20.25,2.65-3.33,6.15-2.84a7.81,7.81,0,0,1,5.68,4.18,15,15,0,0,1,1.93,8.53,12.44,12.44,0,0,1-2.9,7.87Q2687,637,2667.6,644.24t-37,1.17q-19.32-6.69-30.66-27.77Q2591.45,602.25,2588.55,580.5ZM2684.14,525q-3.15-15.39-9.66-26.44-9.9-16.72-23.9-15.72-22.44,2.34-35.48,28.44a108.16,108.16,0,0,0-10.62,39.15q9.89-3.35,23.17-7.7a57.3,57.3,0,0,0,5.79-1.67q18.34-6,40.32-13C2677.29,526.85,2680.76,525.85,2684.14,525Z"/><path d="M2749,464.39v23.09q11.36-12.71,21-19.74,25.1-17.73,41.76,1,14.71,16.06,21,61.57,5.55,40.49,5.79,109.41a13.46,13.46,0,0,1-2.53,8.37,7.45,7.45,0,0,1-6,3.34,7.12,7.12,0,0,1-5.91-3.34,13.93,13.93,0,0,1-2.42-8.37q-.24-66.91-5.55-105.06-5.07-36.81-15-47.85-3.85-4.35-8.93-4-6,0-14.48,6-12.32,8.7-28.48,29.44v35.81q.23,33.45.48,61.56v28.11a14.15,14.15,0,0,1-2.42,8.2q-2.42,3.51-5.91,3.51a7.42,7.42,0,0,1-6-3.35,13.45,13.45,0,0,1-2.54-8.36V615.63q-.24-28.11-.48-61.56V541.69L2730,545q-2.41,3.69-5.91,3.85t-6-3.18a13.77,13.77,0,0,1-2.66-8.2,13.1,13.1,0,0,1,2.29-8.19q7.49-11.38,14.73-21.08-.24-7.69-.24-15.73V464.39a14.14,14.14,0,0,1,2.41-8.2q2.42-3.51,5.91-3.51a7.42,7.42,0,0,1,6,3.35A13.45,13.45,0,0,1,2749,464.39Z"/><path d="M2895.16,408.85q.23,23.76-1,52.53-.72,19.08-2.66,49.19v.67l22.21-9,8-3.34,2.17-1a3,3,0,0,1,1-.33,6.13,6.13,0,0,1,6.39,1,11.38,11.38,0,0,1,4,6.86,15.88,15.88,0,0,1-.61,8.87c-1,2.9-2.69,4.8-4.95,5.69a3.07,3.07,0,0,0-1,.33l-2.17,1c-2.1.9-4.75,2-8,3.35l-23.9,9.7-4.83,2q-1,16.06-1.44,28.11-1,26.1.48,41.49,1.44,16.07,5.79,23.09a13.52,13.52,0,0,0,12.07,7.36,7.75,7.75,0,0,1,5.92,3.85,14.32,14.32,0,0,1,2.17,8.36,13,13,0,0,1-2.66,8,7.62,7.62,0,0,1-6.15,3.18q-15.7-1-24.62-15.73-7.24-12.37-9.42-35.46-1.7-17.4-.48-45.51.48-10.71,1-19.41a1.54,1.54,0,0,0-.73.34,3.1,3.1,0,0,1-1,.33l-8,3.35a11.64,11.64,0,0,0-2.17.67,3.18,3.18,0,0,1-1,.33,5.62,5.62,0,0,1-6.4-.67,11.44,11.44,0,0,1-4-7,15.83,15.83,0,0,1,.6-8.87,10.19,10.19,0,0,1,5-5.86,3.1,3.1,0,0,0,1-.33,12.74,12.74,0,0,1,2.17-.67q3.14-1.34,7.73-3.35l8.44-3.34q.24-3.68.49-10,1.92-29.78,2.89-48.52,1-27.77.73-50.86a14.09,14.09,0,0,1,2.41-8.19,7.49,7.49,0,0,1,5.92-3.68q3.49-.17,6,3.17A13.48,13.48,0,0,1,2895.16,408.85Z"/><path d="M2969.55,468.41q-2.18,51.52-1.93,76.62.24,33.12,4.1,51.2T2984,622q9.18,8.7,26.56,8.36,11.34,0,17.38-7.36,6.51-7.69,10.13-26.1t5.32-51.86q1.2-25.42,1.68-78a14.69,14.69,0,0,1,2.66-8,7.12,7.12,0,0,1,5.91-3.35q3.51,0,6,3.52a12.47,12.47,0,0,1,2.29,8.19q-.48,53.21-1.69,79-1.7,36.14-6,56.88-5.07,25.44-15.69,38t-28,12.55q-22.46.33-36-12.22t-19.07-38.64q-4.59-21.42-4.83-57.55-.24-26.1,1.93-78.3a13.41,13.41,0,0,1,2.9-8.2,6.91,6.91,0,0,1,6.15-2.84q3.51.33,5.8,4A14.09,14.09,0,0,1,2969.55,468.41Z"/><path d="M3108.93,464.73v2a44.78,44.78,0,0,0-.25,5.36q0,7.7-.24,14.05Q3122,471.08,3134,466.07q26.79-11.38,50.93,23.08a15.23,15.23,0,0,1,2.42,8.54,13.15,13.15,0,0,1-2.54,8.19q-2.53,3.36-6,3.18a7.59,7.59,0,0,1-5.92-3.51q-8.92-12.72-17-16.9t-16.78-.17q-13.28,5.37-31.14,29.45v13.38h-.24v16.06l-.24.34v16.06l-.24.33v15.4l-.25.33v16.06l-.24.34V611q-.24,11.37-.48,19.4v7.37a13.45,13.45,0,0,1-2.53,8.36c-1.69,2.23-3.71,3.29-6,3.18a7.52,7.52,0,0,1-5.91-3.68,14.11,14.11,0,0,1-2.42-8.2V630q.24-8.35.49-19.74l.72-59.56q.24-3.35.24-7l-.72,1q-2.17,3.67-5.68,4a7,7,0,0,1-6.15-2.67,13,13,0,0,1-3-7.87,13.39,13.39,0,0,1,2.05-8.53q7.24-12,14-21.41l.25-17.07.24-19.41c0-2.22.08-4.12.24-5.68v-2a12.91,12.91,0,0,1,2.53-8,7.42,7.42,0,0,1,6-3.35q3.49,0,5.91,3.51A14.73,14.73,0,0,1,3108.93,464.73Z"/><path d="M3200.84,580.5q-3.62,1.34-5.79,2.34a6.23,6.23,0,0,1-6.52-.33q-3.14-2-4.22-6.7a16.35,16.35,0,0,1,.36-9,9.77,9.77,0,0,1,4.83-6,93.42,93.42,0,0,1,10.14-4q.72-32.12,13.76-58.89,17.61-35.46,48.27-38.14,22.7-2.34,38.14,23.76,12.08,20.75,15,48.85a16.71,16.71,0,0,1-1.57,8.19q-1.82,3.86-4.95,4.86h-.48a1.74,1.74,0,0,0-1,.33,29.89,29.89,0,0,0-3.62,1c-4.34,1.34-8.77,2.8-13.27,4.35q-22,6.71-40.32,12.72-3.13,1-5.79,1.67-15.45,5.35-26.55,9,1.92,17.4,8.45,29.11,7.73,14.38,21.24,19.07t29-1.17q15.43-5.85,28-20.25,2.65-3.33,6.15-2.84a7.83,7.83,0,0,1,5.68,4.18,15,15,0,0,1,1.93,8.53,12.5,12.5,0,0,1-2.9,7.87q-15.45,18.06-34.88,25.26t-37.05,1.17q-19.32-6.69-30.66-27.77Q3203.73,602.25,3200.84,580.5ZM3296.43,525a85.32,85.32,0,0,0-9.65-26.44q-9.9-16.72-23.9-15.72-22.44,2.34-35.48,28.44a108,108,0,0,0-10.62,39.15q9.88-3.35,23.17-7.7a57.3,57.3,0,0,0,5.79-1.67q18.35-6,40.31-13Q3291.36,526.29,3296.43,525Z"/></g></svg>