<svg xmlns="http://www.w3.org/2000/svg" viewBox="0 0 1057 467"><defs><style>.cls-1,.cls-22{fill:#fff;}.cls-1,.cls-10,.cls-11,.cls-12,.cls-13,.cls-2,.cls-20,.cls-21,.cls-22,.cls-23,.cls-26,.cls-3,.cls-4,.cls-5,.cls-6,.cls-7,.cls-8,.cls-9{stroke:#000;}.cls-1,.cls-10,.cls-11,.cls-12,.cls-13,.cls-2,.cls-20,.cls-21,.cls-22,.cls-23,.cls-24,.cls-25,.cls-26,.cls-3,.cls-4,.cls-5,.cls-6,.cls-7,.cls-8,.cls-9{stroke-miterlimit:10;}.cls-1,.cls-5{stroke-width:8px;}.cls-2{fill:#d6d2e9;}.cls-10,.cls-2,.cls-25,.cls-3,.cls-6,.cls-9{stroke-width:4px;}.cls-20,.cls-24,.cls-25,.cls-3,.cls-4,.cls-5,.cls-8{fill:none;}.cls-4{stroke-width:15px;}.cls-6{fill:#4d4d4d;}.cls-12,.cls-21,.cls-22,.cls-26,.cls-7{stroke-width:2px;}.cls-11,.cls-8{stroke-width:3px;}.cls-9{fill:#b3b3b3;}.cls-11,.cls-17{fill:#ccc;}.cls-12,.cls-19{fill:#999;}.cls-13,.cls-18{fill:#1a1a1a;}.cls-14{fill:#e6e6e6;}.cls-15{fill:#585b62;}.cls-16,.cls-23{fill:#f5ff57;}.cls-21{fill:#6cc;}.cls-24{stroke:gray;}.cls-25{stroke:#e6e6e6;}.cls-26{fill:#333;}</style></defs><title>Artboard 1</title><g id="RV"><path class="cls-1" d="M656.09,282.44,649,402.27H89a36.78,36.78,0,0,1-36.78-36.78V48.71A36.78,36.78,0,0,1,89,11.93l576.61,7.12c55,0,99.66,37.5,99.66,92.54L752.19,267C752.19,287.33,676.4,282.44,656.09,282.44Z"/><rect class="cls-2" x="603.88" y="85.49" width="100.85" height="54.58" rx="7.67" ry="7.67"/><rect class="cls-3" x="516.68" y="293.12" width="100.85" height="86.31" rx="7.67" ry="7.67"/><rect class="cls-3" x="102.23" y="293.12" width="67.71" height="86.31" rx="7.67" ry="7.67"/><rect class="cls-2" x="139.39" y="112.78" width="180.93" height="70" rx="7.67" ry="7.67"/><line class="cls-4" x1="82.69" y1="61.76" x2="576.6" y2="61.76"/><rect x="573.6" y="61.76" width="6" height="201.7"/><rect x="79.69" y="61.76" width="6" height="201.7"/><rect class="cls-3" x="405.15" y="112.78" width="74.75" height="230.17"/><rect class="cls-2" x="417.61" y="137.69" width="51.02" height="78.31" rx="6.17" ry="6.17"/><rect class="cls-3" x="410.2" y="231.42" width="5.19" height="15.57"/><polyline class="cls-3" points="468.63 347.69 468.63 440.83 412.79 440.83 412.79 347.69"/><line class="cls-5" x1="405.15" y1="365.49" x2="476.34" y2="365.49"/><line class="cls-5" x1="405.15" y1="405.24" x2="476.34" y2="405.24"/><line class="cls-5" x1="405.15" y1="440.83" x2="476.34" y2="440.83"/><path class="cls-6" d="M365.71,353.4c-17.43-11.19-51.89-13.49-73.92-13.49-23.62,0-53.83-2.12-72,10.6-21,14.72-28.82,33.13-36.67,58.7h6a53.1,53.1,0,0,1,101.93-15,53.1,53.1,0,0,1,101.94,15h7.47C392.18,382.15,388.59,368.09,365.71,353.4Z"/><rect class="cls-7" x="15.11" y="262.86" width="37.08" height="77.71"/><rect class="cls-8" x="526.77" y="328.49" width="5.19" height="15.57"/><rect class="cls-8" x="109.43" y="328.49" width="5.19" height="15.57"/><polygon class="cls-9" points="690 284 689 293 718 306 738 306 738 298 723 284 721.5 281.54 690.5 282.95 690 284"/><circle class="cls-10" cx="240" cy="416" r="45"/><circle class="cls-11" cx="240" cy="416" r="30.5"/><circle class="cls-12" cx="240" cy="416" r="7.5"/><path class="cls-13" d="M243.42,403.5h-6.84c-1.08,0-1.09-.72-1.58-1.58l-3.78-7.84c-.31-.95,1.25-1.58,2.78-1.58h12c1.53,0,3.14.73,2.78,1.58L245,401.92C244.63,402.69,244.29,403.5,243.42,403.5Z"/><path class="cls-13" d="M230.88,406.79l-3.41,5.92c-.55.94-1.18.59-2.17.58l-8.67-.64c-1-.21-.75-1.88,0-3.2l6-10.4c.76-1.32,2.2-2.35,2.76-1.61l4.89,7.19C230.78,405.34,231.32,406,230.88,406.79Z"/><path class="cls-13" d="M227.47,419.29l3.41,5.92c.54.94-.08,1.31-.58,2.16l-4.89,7.19c-.67.75-2-.29-2.76-1.61l-6-10.4c-.77-1.32-.94-3.08,0-3.2l8.67-.64C226.16,418.65,227,418.54,227.47,419.29Z"/><path class="cls-13" d="M236.58,428.5h6.84c1.08,0,1.09.72,1.58,1.58l3.78,7.84c.31,1-1.25,1.58-2.78,1.58H234c-1.53,0-3.14-.73-2.78-1.58l3.78-7.84C235.37,429.31,235.71,428.5,236.58,428.5Z"/><path class="cls-13" d="M249.12,425.21l3.41-5.92c.55-.94,1.18-.59,2.17-.58l8.67.64c1,.21.75,1.88,0,3.2l-6,10.4c-.76,1.32-2.2,2.35-2.76,1.61l-4.89-7.19C249.22,426.66,248.68,426,249.12,425.21Z"/><path class="cls-13" d="M252.53,412.71l-3.41-5.92c-.54-.94.08-1.31.58-2.16l4.89-7.19c.67-.75,2,.29,2.76,1.61l6,10.4c.77,1.32.94,3.08,0,3.2l-8.67.64C253.84,413.35,253,413.46,252.53,412.71Z"/><circle class="cls-10" cx="341" cy="416" r="45"/><circle class="cls-11" cx="341" cy="416" r="30.5"/><circle class="cls-12" cx="341" cy="416" r="7.5"/><path class="cls-13" d="M344.42,403.5h-6.84c-1.08,0-1.09-.72-1.58-1.58l-3.78-7.84c-.31-.95,1.25-1.58,2.78-1.58h12c1.53,0,3.14.73,2.78,1.58L346,401.92C345.63,402.69,345.29,403.5,344.42,403.5Z"/><path class="cls-13" d="M331.88,406.79l-3.41,5.92c-.55.94-1.18.59-2.17.58l-8.67-.64c-1-.21-.75-1.88,0-3.2l6-10.4c.76-1.32,2.2-2.35,2.76-1.61l4.89,7.19C331.78,405.34,332.32,406,331.88,406.79Z"/><path class="cls-13" d="M328.47,419.29l3.41,5.92c.54.94-.08,1.31-.58,2.16l-4.89,7.19c-.67.75-2-.29-2.76-1.61l-6-10.4c-.77-1.32-.94-3.08,0-3.2l8.67-.64C327.16,418.65,328,418.54,328.47,419.29Z"/><path class="cls-13" d="M337.58,428.5h6.84c1.08,0,1.09.72,1.58,1.58l3.78,7.84c.31,1-1.25,1.58-2.78,1.58H335c-1.53,0-3.14-.73-2.78-1.58l3.78-7.84C336.37,429.31,336.71,428.5,337.58,428.5Z"/><path class="cls-13" d="M350.12,425.21l3.41-5.92c.55-.94,1.18-.59,2.17-.58l8.67.64c1,.21.75,1.88,0,3.2l-6,10.4c-.76,1.32-2.2,2.35-2.76,1.61l-4.89-7.19C350.22,426.66,349.68,426,350.12,425.21Z"/><path class="cls-13" d="M353.53,412.71l-3.41-5.92c-.54-.94.08-1.31.58-2.16l4.89-7.19c.67-.75,2,.29,2.76,1.61l6,10.4c.77,1.32.94,3.08,0,3.2l-8.67.64C354.84,413.35,354,413.46,353.53,412.71Z"/></g><g id="Truck"><path class="cls-14" d="M1048,392.17v23.66a8.18,8.18,0,0,1-6,7.87,7.79,7.79,0,0,1-2.17.3H1033a56,56,0,0,0-3.84-40h10.72a7.79,7.79,0,0,1,2.17.3A8.18,8.18,0,0,1,1048,392.17Z"/><path class="cls-15" d="M1042,367v17.3a7.79,7.79,0,0,0-2.17-.3h-10.72A53.9,53.9,0,0,0,981,354c-29.82,0-54,24.62-54,55a55.81,55.81,0,0,0,2.18,15.5H788.82A55.81,55.81,0,0,0,791,409c0-30.38-24.18-55-54-55a53.9,53.9,0,0,0-48.11,30A55.53,55.53,0,0,0,683,409c0,1,0,2,.08,3a54.08,54.08,0,0,0,.69,6.28A19.32,19.32,0,0,0,671.5,414V310.5h158v-75h69.41c1.89.7,3.76,1.45,5.59,2.24,22.6,9.7,40,25.6,48.7,43.89v0c.77,1.62,1.47,3.27,2.1,4.93,4.33,6.36,14.31,11.1,26.4,12.19l.2,0c17.65,1.67,33,5.89,43.78,11.71C1035.91,316,1042,323,1042,330.5V341h-12.17a6.86,6.86,0,0,0-6.83,6.83v12.34a6.86,6.86,0,0,0,6.83,6.83Z"/><path class="cls-16" d="M1042,341v26h-12.17a6.86,6.86,0,0,1-6.83-6.83V347.83a6.86,6.86,0,0,1,6.83-6.83Z"/><path class="cls-14" d="M671.5,384V412a8.19,8.19,0,0,1-7.5-8.14V392.17A8.19,8.19,0,0,1,671.5,384Z"/><line class="cls-3" x1="1042" y1="367" x2="1042" y2="384.3"/><path class="cls-3" d="M671.5,384V310.5h158v-75h69.41c1.89.7,3.76,1.45,5.59,2.24,22.6,9.7,40,25.6,48.7,43.89v0c.77,1.62,1.47,3.27,2.1,4.93,4.33,6.36,14.31,11.1,26.4,12.19l.2,0c17.65,1.67,33,5.89,43.78,11.71C1035.91,316,1042,323,1042,330.5V341"/><path class="cls-3" d="M671.5,412v2a19.32,19.32,0,0,1,12.27,4.28,54.08,54.08,0,0,1-.69-6.28c-.05-1-.08-2-.08-3a55.53,55.53,0,0,1,5.89-25"/><path class="cls-3" d="M688.89,384A53.9,53.9,0,0,1,737,354c29.82,0,54,24.62,54,55a55.81,55.81,0,0,1-2.18,15.5H929.18A55.81,55.81,0,0,1,927,409c0-30.38,24.18-55,54-55a53.9,53.9,0,0,1,48.11,30"/><path class="cls-3" d="M1042,341h-12.17a6.86,6.86,0,0,0-6.83,6.83v12.34a6.86,6.86,0,0,0,6.83,6.83H1042Z"/><path class="cls-3" d="M671.5,384a8.19,8.19,0,0,0-7.5,8.14v11.66a8.19,8.19,0,0,0,7.5,8.14Z"/><path class="cls-3" d="M1042,384.3a7.79,7.79,0,0,0-2.17-.3h-10.72a56,56,0,0,1,3.84,40h6.88a7.79,7.79,0,0,0,2.17-.3,8.18,8.18,0,0,0,6-7.87V392.17A8.18,8.18,0,0,0,1042,384.3Z"/><path d="M736.5,361.5a50,50,0,1,1-50,50A50,50,0,0,1,736.5,361.5Zm30,50a30,30,0,0,0-42.73-27.16c-.59.27-1.18.57-1.75.88a30,30,0,0,0-11,10.45,24.89,24.89,0,0,0-1.74,3.21,29.77,29.77,0,0,0-2.79,12.62,29.42,29.42,0,0,0,.8,6.87,30,30,0,0,0,59.2-6.87Z"/><path class="cls-17" d="M760.52,393.52a30,30,0,1,1-53.22,24.85,29.42,29.42,0,0,1-.8-6.87,29.77,29.77,0,0,1,2.79-12.62,24.89,24.89,0,0,1,1.74-3.21,30,30,0,0,1,11-10.45c.57-.31,1.16-.61,1.75-.88a30,30,0,0,1,19-2.19A30,30,0,0,1,760.52,393.52ZM762,411c0-.33,0-.66,0-1s0-.37,0-.56,0-.52-.07-.77a22.2,22.2,0,0,0-.36-2.31c0-.25-.11-.51-.17-.76s-.12-.51-.19-.76c-.19-.71-.41-1.41-.66-2.11-.14-.39-.29-.77-.45-1.15s-.26-.6-.4-.9c-.06-.11-.11-.22-.16-.33-.14-.29-.28-.58-.44-.86s-.38-.71-.59-1.05a3.79,3.79,0,0,0-.2-.34l-.1-.15c-.1-.17-.21-.33-.31-.49h0a7.43,7.43,0,0,0-.53-.76c0-.08-.1-.15-.15-.23s-.17-.24-.26-.35c-.22-.3-.46-.6-.7-.89s-.5-.6-.77-.89-.53-.58-.81-.85-.52-.52-.79-.76c-.47-.44-.95-.85-1.45-1.24a18.81,18.81,0,0,0-4.91,7.62l.52.48c.18.17.35.35.52.53a.22.22,0,0,1,.08.09l.41.45c.15.17.3.34.43.52a5.37,5.37,0,0,1,.35.45l.1.13.1.14.27.39a15,15,0,0,1,1.13,2c.11.23.22.46.32.7a5.49,5.49,0,0,1,.21.51,10.75,10.75,0,0,1,.39,1.13c.11.37.21.73.3,1.1s.15.69.21,1c0,.11,0,.21,0,.31a5,5,0,0,1,.08.65c0,.21.05.42.06.62a1.41,1.41,0,0,1,0,.29,3,3,0,0,1,0,.42A18.73,18.73,0,0,0,762,411Zm-1.91,10.15c.11-.26.21-.52.31-.79a18.76,18.76,0,0,0-8.76-2.31c-.12.27-.24.54-.38.8s-.27.53-.42.79-.21.36-.32.54-.18.29-.28.43-.25.37-.38.55-.31.42-.48.62-.26.32-.39.47-.3.35-.46.51-.32.33-.48.49c-.32.32-.66.62-1,.9s-.7.56-1.06.81-.63.43-1,.62-.65.38-1,.55-.67.33-1,.48l-.11.05q-.45.19-.93.36a18.8,18.8,0,0,0,2.82,8.54,6.34,6.34,0,0,0,.73-.26c.4-.14.8-.31,1.2-.49l.65-.29c.13-.06.25-.13.38-.18q.66-.33,1.29-.69c.45-.25.9-.53,1.34-.81l.54-.36c.24-.16.47-.33.7-.5l.24-.18a10.72,10.72,0,0,0,.84-.67c.29-.24.58-.48.86-.74a.86.86,0,0,0,.14-.13c.24-.21.47-.43.7-.66a1.45,1.45,0,0,0,.17-.18c.22-.21.42-.42.62-.64l.25-.27c.2-.22.4-.45.58-.68.39-.44.74-.9,1.09-1.38l.51-.73c.21-.31.41-.63.61-.95a25.67,25.67,0,0,0,1.33-2.47q.15-.3.27-.6A4.28,4.28,0,0,0,760.08,421.19ZM749.5,411.5A13,13,0,0,0,729,400.87l-.61.46a13.1,13.1,0,0,0-3.32,3.93c-.22.4-.41.82-.59,1.24a13,13,0,0,0-1,5c0,.27,0,.54,0,.8a13,13,0,0,0,13,12.2A13,13,0,0,0,749.5,411.5Zm-5.56-24.38h0l-.41-.13-.3-.08c-.46-.12-.92-.24-1.39-.34a23.22,23.22,0,0,0-2.63-.42l-.87-.08h0l-.46,0a3,3,0,0,0-.42,0h-1.67l-.65,0h-.24l-.62.05c-.5,0-1,.1-1.49.18-.22,0-.43.06-.65.11-.51.08-1,.19-1.53.31l-1.14.3-.68.21-.12,0-.84.29-.36.14c-.29.1-.58.22-.86.34l-.4.17c-.35.16-.7.32-1,.5s-.84.43-1.25.67l-.25.14-.29.18-.44.27-.47.31a18.69,18.69,0,0,0,5.73,7c.23-.14.46-.27.7-.39l.11-.06c.21-.11.43-.22.64-.31s.49-.22.74-.32.35-.14.53-.2l.54-.19a10.34,10.34,0,0,1,1.24-.35q.68-.16,1.35-.27l.51-.07h.09c.27,0,.54-.06.81-.07s.73,0,1.09,0h.41c.24,0,.48,0,.71,0h.21a5.7,5.7,0,0,1,.58.06c.21,0,.41,0,.62.08s.67.11,1,.19a12,12,0,0,1,1.18.3A18.63,18.63,0,0,0,743.94,387.12ZM735.42,437a18.78,18.78,0,0,0-.51-9.05h0c-.53-.05-1-.13-1.57-.23-.36-.07-.71-.15-1.07-.25a13.09,13.09,0,0,1-1.5-.48l-.45-.17-.67-.29-.69-.34-.08,0c-.4-.21-.79-.43-1.17-.67s-.74-.49-1.09-.76h0c-.28-.21-.55-.43-.81-.65s-.41-.36-.61-.56l-.37-.36a4.27,4.27,0,0,1-.36-.38.49.49,0,0,1-.12-.13c-.23-.25-.46-.51-.67-.78a.76.76,0,0,1-.11-.14,1.83,1.83,0,0,1-.13-.16,18.73,18.73,0,0,0-7.25,5.32,3.92,3.92,0,0,0,.25.32c.23.3.47.6.72.89s.54.62.82.92l.07.07c.11.12.22.24.34.35.27.28.54.55.83.81l.17.15q.45.42.93.81l.18.15.45.35.08.06c.28.23.58.45.88.65l.06,0c.25.18.5.35.76.51l.32.21.76.45a.51.51,0,0,0,.16.09c.28.16.56.32.85.47l.2.1.88.42.17.08.73.31c.24.11.48.2.73.29s.74.28,1.12.4h0l.83.25,1,.26c.35.09.71.17,1.07.24l.6.11c.41.07.81.13,1.22.18s.83.1,1.24.12A8.24,8.24,0,0,0,735.42,437Zm-14.53-30.82a16.23,16.23,0,0,1,2-4,18.74,18.74,0,0,0-7.3-5.25A25.38,25.38,0,0,0,711,411.5a24.94,24.94,0,0,0,.94,6.84,18.75,18.75,0,0,0,8.45-3.28,16.49,16.49,0,0,1,.5-8.91Z"/><path class="cls-18" d="M762,410.05c0,.33,0,.66,0,1a18.73,18.73,0,0,1-9,0,3,3,0,0,0,0-.42,1.41,1.41,0,0,0,0-.29c0-.2,0-.41-.06-.62a5,5,0,0,0-.08-.65c0-.1,0-.2,0-.31-.06-.35-.13-.69-.21-1s-.19-.73-.3-1.1a10.75,10.75,0,0,0-.39-1.13,5.49,5.49,0,0,0-.21-.51c-.1-.23-.2-.47-.32-.7a15,15,0,0,0-1.13-2l-.27-.39-.1-.14-.1-.13a5.37,5.37,0,0,0-.35-.45c-.13-.18-.28-.35-.43-.52a5.57,5.57,0,0,0-.41-.45.22.22,0,0,0-.08-.09c-.16-.18-.34-.36-.52-.53l-.52-.48a18.81,18.81,0,0,1,4.91-7.62c.5.39,1,.8,1.45,1.24.27.24.53.5.79.76s.55.56.81.85.52.59.77.89.48.59.7.89c.09.11.17.23.26.35s.11.15.15.23c.19.25.36.5.53.76h0c.1.16.21.32.31.49a4.94,4.94,0,0,1,.3.49c.21.34.4.69.59,1.05s.3.57.44.86c0,.11.1.22.16.33.14.3.27.6.4.9s.31.76.45,1.15c.25.7.47,1.4.66,2.11.07.25.13.51.19.76s.12.51.17.76q.22,1.15.36,2.31c0,.25,0,.51.07.77S762,409.87,762,410.05Z"/><path class="cls-18" d="M760.39,420.4c-.1.27-.2.53-.31.79s-.15.37-.23.55-.17.4-.27.6a25.67,25.67,0,0,1-1.33,2.47c-.2.32-.4.64-.61.95l-.51.73c-.35.48-.7.94-1.09,1.38-.18.23-.38.46-.58.68l-.25.27c-.2.22-.4.43-.62.64a1.45,1.45,0,0,1-.17.18c-.23.23-.46.45-.7.66a.86.86,0,0,1-.14.13c-.28.26-.57.5-.86.74s-.56.45-.84.67l-.24.18c-.23.17-.46.34-.7.5l-.54.36c-.44.28-.89.56-1.34.81s-.85.47-1.29.69c-.13.05-.25.12-.38.18l-.65.29c-.4.17-.8.34-1.2.49l-.73.26a18.8,18.8,0,0,1-2.82-8.54q.48-.17.93-.36l.11-.05q.53-.22,1-.48c.33-.17.66-.35,1-.55s.64-.4,1-.62.72-.52,1.06-.81.68-.58,1-.9c.16-.16.33-.32.48-.49s.31-.33.46-.51.27-.31.39-.47.33-.41.48-.62.26-.36.38-.55.19-.29.28-.43.22-.36.32-.54.29-.52.42-.79.26-.53.38-.8A18.76,18.76,0,0,1,760.39,420.4Z"/><path class="cls-19" d="M748.11,405.65a13,13,0,1,1-24.58,6.65c0-.26,0-.53,0-.8a13,13,0,0,1,1-5c.18-.42.37-.84.59-1.24a13.1,13.1,0,0,1,3.32-3.93l.61-.46a13,13,0,0,1,19.09,4.78Z"/><path class="cls-18" d="M743.9,387.11h0a18.63,18.63,0,0,1-2.74,8.56,12,12,0,0,0-1.18-.3c-.33-.08-.67-.14-1-.19s-.41-.06-.62-.08a5.7,5.7,0,0,0-.58-.06h-.21c-.23,0-.47,0-.71,0h-.41c-.36,0-.72,0-1.09,0s-.54,0-.81.07h-.09l-.51.07q-.68.1-1.35.27a10.34,10.34,0,0,0-1.24.35l-.54.19c-.18.06-.35.12-.53.2s-.5.2-.74.32-.43.2-.64.31l-.11.06c-.24.12-.47.25-.7.39a18.69,18.69,0,0,1-5.73-7l.47-.31.44-.27.29-.18.25-.14c.41-.24.82-.46,1.25-.67s.7-.34,1-.5l.4-.17c.28-.12.57-.24.86-.34l.36-.14.84-.29.12,0,.68-.21,1.14-.3c.51-.12,1-.23,1.53-.31.22-.05.43-.08.65-.11.5-.08,1-.14,1.49-.18l.62-.05h.24l.65,0h1.67a3,3,0,0,1,.42,0l.46,0h0l.87.08a23.22,23.22,0,0,1,2.63.42c.47.1.93.22,1.39.34l.3.08Z"/><path class="cls-18" d="M734.91,427.92a18.78,18.78,0,0,1,.51,9.05l-.85-.05c-.41,0-.83-.07-1.24-.12s-.81-.11-1.22-.18l-.6-.11c-.36-.07-.72-.15-1.07-.24l-1-.26-.83-.25h0l-1.12-.4c-.25-.09-.49-.18-.73-.29l-.73-.31-.17-.08-.88-.42-.2-.1c-.29-.15-.57-.31-.85-.47a.51.51,0,0,1-.16-.09l-.76-.45-.32-.21c-.26-.16-.51-.33-.76-.51l-.06,0c-.3-.21-.59-.42-.88-.65l-.08-.06-.45-.35-.18-.15q-.48-.39-.93-.81l-.17-.15c-.29-.26-.56-.53-.83-.81-.12-.11-.23-.23-.34-.35l-.07-.07c-.28-.3-.56-.6-.82-.92s-.49-.59-.72-.89a3.92,3.92,0,0,1-.25-.32,18.73,18.73,0,0,1,7.25-5.32,1.83,1.83,0,0,0,.13.16.76.76,0,0,0,.11.14,9.85,9.85,0,0,0,.67.78.49.49,0,0,0,.12.13,4.27,4.27,0,0,0,.36.38l.37.36c.2.2.4.38.61.56s.53.44.81.65h0c.35.27.72.52,1.09.76s.77.46,1.17.67l.08,0,.69.34.67.29.45.17a13.09,13.09,0,0,0,1.5.48c.36.1.71.18,1.07.25.52.1,1,.18,1.57.23Z"/><path class="cls-18" d="M722.91,402.14a16.49,16.49,0,0,0-2.52,12.92,18.75,18.75,0,0,1-8.45,3.28,24.94,24.94,0,0,1-.94-6.84,25.38,25.38,0,0,1,4.61-14.61A18.74,18.74,0,0,1,722.91,402.14Z"/><circle class="cls-20" cx="736.5" cy="411.5" r="50"/><path class="cls-20" d="M736.5,441.5a30,30,0,1,0,0-60,29.67,29.67,0,0,0-12.73,2.84c-.59.27-1.18.57-1.75.88a30,30,0,0,0-11,10.45,24.89,24.89,0,0,0-1.74,3.21,29.77,29.77,0,0,0-2.79,12.62,29.42,29.42,0,0,0,.8,6.87,30,30,0,0,0,29.2,23.13Z"/><path class="cls-20" d="M748.48,400.16c-.17-.18-.34-.36-.52-.53"/><path class="cls-20" d="M749,400.7l-.41-.45"/><path class="cls-20" d="M751.67,405c-.1-.24-.21-.47-.32-.7"/><path class="cls-20" d="M761.49,406.41a22.2,22.2,0,0,1,.36,2.31"/><path class="cls-20" d="M759,399.54c.16.28.3.57.44.86"/><path class="cls-20" d="M758.13,398l.1.15a3.79,3.79,0,0,1,.2.34"/><path class="cls-20" d="M757.28,396.74a7.43,7.43,0,0,1,.53.76"/><path class="cls-20" d="M754.59,393.53c.28.27.55.56.81.85"/><path class="cls-20" d="M722.88,390l.44-.27.29-.18.25-.14c.41-.24.82-.46,1.25-.67s.7-.34,1-.5l.4-.17c.28-.12.57-.24.86-.34l.36-.14.84-.29.12,0,.68-.21,1.14-.3c.51-.12,1-.23,1.53-.31.22-.05.43-.08.65-.11.5-.08,1-.14,1.49-.18l.62-.05h.24l.65,0h1.67a3,3,0,0,1,.42,0l.46,0h0l.87.08a23.22,23.22,0,0,1,2.63.42c.47.1.93.22,1.39.34l.3.08.41.13h0a18.63,18.63,0,0,1-2.74,8.56,12,12,0,0,0-1.18-.3c-.33-.08-.67-.14-1-.19s-.41-.06-.62-.08a5.7,5.7,0,0,0-.58-.06h-.21c-.23,0-.47,0-.71,0h-.41c-.36,0-.72,0-1.09,0s-.54,0-.81.07h-.09l-.51.07q-.68.1-1.35.27a10.34,10.34,0,0,0-1.24.35l-.54.19c-.18.06-.35.12-.53.2s-.5.2-.74.32-.43.2-.64.31l-.11.06c-.24.12-.47.25-.7.39a18.69,18.69,0,0,1-5.73-7Z"/><path class="cls-20" d="M723.64,421.83c.21.27.44.53.67.78"/><path class="cls-20" d="M721.87,432.38c-.3-.2-.6-.42-.88-.65"/><path class="cls-20" d="M728.61,435.75c-.38-.12-.75-.25-1.12-.4"/><path class="cls-20" d="M735.42,437a8.24,8.24,0,0,1-.85-.05"/><path class="cls-20" d="M726.68,420a12.85,12.85,0,0,1-3.15-7.71c0-.26,0-.53,0-.8a13,13,0,0,1,1-5c.18-.42.37-.84.59-1.24a13.1,13.1,0,0,1,3.32-3.93l.61-.46A13,13,0,1,1,726.68,420Z"/><path class="cls-20" d="M746.74,434.85c-.4.18-.8.35-1.2.49a6.34,6.34,0,0,1-.73.26"/><path class="cls-20" d="M752.72,431.17a10.72,10.72,0,0,1-.84.67"/><path class="cls-20" d="M760.08,421.19a4.28,4.28,0,0,1-.23.55"/><path class="cls-20" d="M711.94,418.34a24.94,24.94,0,0,1-.94-6.84,25.38,25.38,0,0,1,4.61-14.61,18.74,18.74,0,0,1,7.3,5.25,16.49,16.49,0,0,0-2.52,12.92A18.75,18.75,0,0,1,711.94,418.34Z"/><path class="cls-20" d="M761.85,408.72c0,.25,0,.51.07.77s0,.38,0,.56,0,.66,0,1a18.73,18.73,0,0,1-9,0,3,3,0,0,0,0-.42,1.41,1.41,0,0,0,0-.29c0-.2,0-.41-.06-.62a5,5,0,0,0-.08-.65c0-.1,0-.2,0-.31-.06-.35-.13-.69-.21-1s-.19-.73-.3-1.1a10.75,10.75,0,0,0-.39-1.13,5.49,5.49,0,0,0-.21-.51c-.1-.23-.2-.47-.32-.7a15,15,0,0,0-1.13-2l-.27-.39-.1-.14-.1-.13a5.37,5.37,0,0,0-.35-.45c-.13-.18-.28-.35-.43-.52a5.57,5.57,0,0,0-.41-.45.22.22,0,0,0-.08-.09c-.16-.18-.34-.36-.52-.53l-.52-.48a18.81,18.81,0,0,1,4.91-7.62c.5.39,1,.8,1.45,1.24.27.24.53.5.79.76s.55.56.81.85.52.59.77.89.48.59.7.89c.09.11.17.23.26.35s.11.15.15.23c.19.25.36.5.53.76h0c.1.16.21.32.31.49a4.94,4.94,0,0,1,.3.49c.21.34.4.69.59,1.05s.3.57.44.86c0,.11.1.22.16.33.14.3.27.6.4.9s.31.76.45,1.15c.25.7.47,1.4.66,2.11.07.25.13.51.19.76s.12.51.17.76Q761.71,407.57,761.85,408.72Z"/><path class="cls-20" d="M744.81,435.6a18.8,18.8,0,0,1-2.82-8.54q.48-.17.93-.36l.11-.05q.53-.22,1-.48c.33-.17.66-.35,1-.55s.64-.4,1-.62.72-.52,1.06-.81.68-.58,1-.9c.16-.16.33-.32.48-.49s.31-.33.46-.51.27-.31.39-.47.33-.41.48-.62.26-.36.38-.55.19-.29.28-.43.22-.36.32-.54.29-.52.42-.79.26-.53.38-.8a18.76,18.76,0,0,1,8.76,2.31c-.1.27-.2.53-.31.79s-.15.37-.23.55-.17.4-.27.6a25.67,25.67,0,0,1-1.33,2.47c-.2.32-.4.64-.61.95l-.51.73c-.35.48-.7.94-1.09,1.38-.18.23-.38.46-.58.68l-.25.27c-.2.22-.4.43-.62.64a1.45,1.45,0,0,1-.17.18c-.23.23-.46.45-.7.66a.86.86,0,0,1-.14.13c-.28.26-.57.5-.86.74s-.56.45-.84.67l-.24.18c-.23.17-.46.34-.7.5l-.54.36c-.44.28-.89.56-1.34.81s-.85.47-1.29.69c-.13.05-.25.12-.38.18l-.65.29c-.4.17-.8.34-1.2.49Z"/><path class="cls-20" d="M735.42,437l-.85-.05c-.41,0-.83-.07-1.24-.12s-.81-.11-1.22-.18l-.6-.11c-.36-.07-.72-.15-1.07-.24l-1-.26-.83-.25h0l-1.12-.4c-.25-.09-.49-.18-.73-.29l-.73-.31-.17-.08-.88-.42-.2-.1c-.29-.15-.57-.31-.85-.47a.51.51,0,0,1-.16-.09l-.76-.45-.32-.21c-.26-.16-.51-.33-.76-.51l-.06,0c-.3-.21-.59-.42-.88-.65l-.08-.06-.45-.35-.18-.15q-.48-.39-.93-.81l-.17-.15c-.29-.26-.56-.53-.83-.81-.12-.11-.23-.23-.34-.35l-.07-.07c-.28-.3-.56-.6-.82-.92s-.49-.59-.72-.89a3.92,3.92,0,0,1-.25-.32,18.73,18.73,0,0,1,7.25-5.32,1.83,1.83,0,0,0,.13.16.76.76,0,0,0,.11.14,9.85,9.85,0,0,0,.67.78.49.49,0,0,0,.12.13,4.27,4.27,0,0,0,.36.38l.37.36c.2.2.4.38.61.56s.53.44.81.65h0c.35.27.72.52,1.09.76s.77.46,1.17.67l.08,0,.69.34.67.29.45.17a13.09,13.09,0,0,0,1.5.48c.36.1.71.18,1.07.25.52.1,1,.18,1.57.23h0A18.78,18.78,0,0,1,735.42,437Z"/><path d="M981.5,361.5a50,50,0,1,1-50,50A50,50,0,0,1,981.5,361.5Zm30,50a30,30,0,0,0-42.73-27.16c-.59.27-1.18.57-1.75.88a30,30,0,0,0-11,10.45,24.89,24.89,0,0,0-1.74,3.21,29.77,29.77,0,0,0-2.79,12.62,29.42,29.42,0,0,0,.8,6.87,30,30,0,0,0,59.2-6.87Z"/><path class="cls-17" d="M1005.52,393.52a30,30,0,1,1-53.22,24.85,29.42,29.42,0,0,1-.8-6.87,29.77,29.77,0,0,1,2.79-12.62,24.89,24.89,0,0,1,1.74-3.21,30,30,0,0,1,11-10.45c.57-.31,1.16-.61,1.75-.88a30,30,0,0,1,19-2.19A30,30,0,0,1,1005.52,393.52ZM1007,411c0-.33,0-.66,0-1s0-.37,0-.56,0-.52-.07-.77a22.2,22.2,0,0,0-.36-2.31c0-.25-.11-.51-.17-.76s-.12-.51-.19-.76c-.19-.71-.41-1.41-.66-2.11-.14-.39-.29-.77-.45-1.15s-.26-.6-.4-.9c-.06-.11-.11-.22-.16-.33-.14-.29-.28-.58-.44-.86s-.38-.71-.59-1.05a3.79,3.79,0,0,0-.2-.34l-.1-.15c-.1-.17-.21-.33-.31-.49h0a7.43,7.43,0,0,0-.53-.76c0-.08-.1-.15-.15-.23s-.17-.24-.26-.35c-.22-.3-.46-.6-.7-.89s-.5-.6-.77-.89-.53-.58-.81-.85-.52-.52-.79-.76c-.47-.44-.95-.85-1.45-1.24a18.81,18.81,0,0,0-4.91,7.62l.52.48c.18.17.35.35.52.53a.22.22,0,0,1,.08.09l.41.45c.15.17.3.34.43.52a5.37,5.37,0,0,1,.35.45l.1.13.1.14.27.39a15,15,0,0,1,1.13,2c.11.23.22.46.32.7a5.49,5.49,0,0,1,.21.51,10.75,10.75,0,0,1,.39,1.13c.11.37.21.73.3,1.1s.15.69.21,1c0,.11,0,.21,0,.31a5,5,0,0,1,.08.65c0,.21.05.42.06.62a1.41,1.41,0,0,1,0,.29,3,3,0,0,1,0,.42A18.73,18.73,0,0,0,1007,411Zm-1.91,10.15c.11-.26.21-.52.31-.79a18.76,18.76,0,0,0-8.76-2.31c-.12.27-.24.54-.38.8s-.27.53-.42.79-.21.36-.32.54-.18.29-.28.43-.25.37-.38.55-.31.42-.48.62-.26.32-.39.47-.3.35-.46.51-.32.33-.48.49c-.32.32-.66.62-1,.9s-.7.56-1.06.81-.63.43-1,.62-.65.38-1,.55-.67.33-1,.48l-.11.05q-.45.19-.93.36a18.8,18.8,0,0,0,2.82,8.54,6.34,6.34,0,0,0,.73-.26c.4-.14.8-.31,1.2-.49l.65-.29c.13-.06.25-.13.38-.18q.66-.33,1.29-.69c.45-.25.9-.53,1.34-.81l.54-.36c.24-.16.47-.33.7-.5l.24-.18a10.72,10.72,0,0,0,.84-.67c.29-.24.58-.48.86-.74a.86.86,0,0,0,.14-.13c.24-.21.47-.43.7-.66a1.45,1.45,0,0,0,.17-.18c.22-.21.42-.42.62-.64l.25-.27c.2-.22.4-.45.58-.68.39-.44.74-.9,1.09-1.38l.51-.73c.21-.31.41-.63.61-.95a25.67,25.67,0,0,0,1.33-2.47q.15-.3.27-.6A4.28,4.28,0,0,0,1005.08,421.19ZM994.5,411.5A13,13,0,0,0,974,400.87l-.61.46a13.1,13.1,0,0,0-3.32,3.93c-.22.4-.41.82-.59,1.24a13,13,0,0,0-1,5c0,.27,0,.54,0,.8a13,13,0,0,0,13,12.2A13,13,0,0,0,994.5,411.5Zm-5.56-24.38h0l-.41-.13-.3-.08c-.46-.12-.92-.24-1.39-.34a23.22,23.22,0,0,0-2.63-.42l-.87-.08h0l-.46,0a3,3,0,0,0-.42,0h-1.67l-.65,0h-.24l-.62.05c-.5,0-1,.1-1.49.18-.22,0-.43.06-.65.11-.51.08-1,.19-1.53.31l-1.14.3-.68.21-.12,0-.84.29-.36.14c-.29.1-.58.22-.86.34l-.4.17c-.35.16-.7.32-1,.5s-.84.43-1.25.67l-.25.14-.29.18-.44.27-.47.31a18.69,18.69,0,0,0,5.73,7c.23-.14.46-.27.7-.39l.11-.06c.21-.11.43-.22.64-.31s.49-.22.74-.32.35-.14.53-.2l.54-.19a10.34,10.34,0,0,1,1.24-.35q.68-.16,1.35-.27l.51-.07h.09c.27,0,.54-.06.81-.07s.73,0,1.09,0h.41c.24,0,.48,0,.71,0h.21a5.7,5.7,0,0,1,.58.06c.21,0,.41,0,.62.08s.67.11,1,.19a12,12,0,0,1,1.18.3A18.63,18.63,0,0,0,988.94,387.12ZM980.42,437a18.78,18.78,0,0,0-.51-9.05h0c-.53-.05-1-.13-1.57-.23-.36-.07-.71-.15-1.07-.25a13.09,13.09,0,0,1-1.5-.48l-.45-.17-.67-.29-.69-.34-.08,0c-.4-.21-.79-.43-1.17-.67s-.74-.49-1.09-.76h0c-.28-.21-.55-.43-.81-.65s-.41-.36-.61-.56l-.37-.36a4.27,4.27,0,0,1-.36-.38.49.49,0,0,1-.12-.13c-.23-.25-.46-.51-.67-.78a.76.76,0,0,1-.11-.14,1.83,1.83,0,0,1-.13-.16,18.73,18.73,0,0,0-7.25,5.32,3.92,3.92,0,0,0,.25.32c.23.3.47.6.72.89s.54.62.82.92l.07.07c.11.12.22.24.34.35.27.28.54.55.83.81l.17.15q.45.42.93.81l.18.15.45.35.08.06c.28.23.58.45.88.65l.06,0c.25.18.5.35.76.51l.32.21.76.45a.51.51,0,0,0,.16.09c.28.16.56.32.85.47l.2.1.88.42.17.08.73.31c.24.11.48.2.73.29s.74.28,1.12.4h0l.83.25,1,.26c.35.09.71.17,1.07.24l.6.11c.41.07.81.13,1.22.18s.83.1,1.24.12A8.24,8.24,0,0,0,980.42,437Zm-14.53-30.82a16.23,16.23,0,0,1,2-4,18.74,18.74,0,0,0-7.3-5.25A25.38,25.38,0,0,0,956,411.5a24.94,24.94,0,0,0,.94,6.84,18.75,18.75,0,0,0,8.45-3.28,16.49,16.49,0,0,1,.5-8.91Z"/><path class="cls-18" d="M1007,410.05c0,.33,0,.66,0,1a18.73,18.73,0,0,1-9,0,3,3,0,0,0,0-.42,1.41,1.41,0,0,0,0-.29c0-.2,0-.41-.06-.62a5,5,0,0,0-.08-.65c0-.1,0-.2,0-.31-.06-.35-.13-.69-.21-1s-.19-.73-.3-1.1a10.75,10.75,0,0,0-.39-1.13,5.49,5.49,0,0,0-.21-.51c-.1-.23-.2-.47-.32-.7a15,15,0,0,0-1.13-2l-.27-.39-.1-.14-.1-.13a5.37,5.37,0,0,0-.35-.45c-.13-.18-.28-.35-.43-.52a5.57,5.57,0,0,0-.41-.45.22.22,0,0,0-.08-.09c-.16-.18-.34-.36-.52-.53l-.52-.48a18.81,18.81,0,0,1,4.91-7.62c.5.39,1,.8,1.45,1.24.27.24.53.5.79.76s.55.56.81.85.52.59.77.89.48.59.7.89c.09.11.17.23.26.35s.11.15.15.23c.19.25.36.5.53.76h0c.1.16.21.32.31.49a4.94,4.94,0,0,1,.3.49c.21.34.4.69.59,1.05s.3.57.44.86c0,.11.1.22.16.33.14.3.27.6.4.9s.31.76.45,1.15c.25.7.47,1.4.66,2.11.07.25.13.51.19.76s.12.51.17.76q.22,1.15.36,2.31c0,.25,0,.51.07.77S1007,409.87,1007,410.05Z"/><path class="cls-18" d="M1005.39,420.4c-.1.27-.2.53-.31.79s-.15.37-.23.55-.17.4-.27.6a25.67,25.67,0,0,1-1.33,2.47c-.2.32-.4.64-.61.95l-.51.73c-.35.48-.7.94-1.09,1.38-.18.23-.38.46-.58.68l-.25.27c-.2.22-.4.43-.62.64a1.45,1.45,0,0,1-.17.18c-.23.23-.46.45-.7.66a.86.86,0,0,1-.14.13c-.28.26-.57.5-.86.74s-.56.45-.84.67l-.24.18c-.23.17-.46.34-.7.5l-.54.36c-.44.28-.89.56-1.34.81s-.85.47-1.29.69c-.13.05-.25.12-.38.18l-.65.29c-.4.17-.8.34-1.2.49l-.73.26a18.8,18.8,0,0,1-2.82-8.54q.48-.17.93-.36l.11-.05q.53-.22,1-.48c.33-.17.66-.35,1-.55s.64-.4,1-.62.72-.52,1.06-.81.68-.58,1-.9c.16-.16.33-.32.48-.49s.31-.33.46-.51.27-.31.39-.47.33-.41.48-.62.26-.36.38-.55.19-.29.28-.43.22-.36.32-.54.29-.52.42-.79.26-.53.38-.8A18.76,18.76,0,0,1,1005.39,420.4Z"/><path class="cls-19" d="M993.11,405.65a13,13,0,1,1-24.58,6.65c0-.26,0-.53,0-.8a13,13,0,0,1,1-5c.18-.42.37-.84.59-1.24a13.1,13.1,0,0,1,3.32-3.93l.61-.46a13,13,0,0,1,19.09,4.78Z"/><path class="cls-18" d="M988.9,387.11h0a18.63,18.63,0,0,1-2.74,8.56,12,12,0,0,0-1.18-.3c-.33-.08-.67-.14-1-.19s-.41-.06-.62-.08a5.7,5.7,0,0,0-.58-.06h-.21c-.23,0-.47,0-.71,0h-.41c-.36,0-.72,0-1.09,0s-.54,0-.81.07h-.09l-.51.07q-.68.1-1.35.27a10.34,10.34,0,0,0-1.24.35l-.54.19c-.18.06-.35.12-.53.2s-.5.2-.74.32-.43.2-.64.31l-.11.06c-.24.12-.47.25-.7.39a18.69,18.69,0,0,1-5.73-7l.47-.31.44-.27.29-.18.25-.14c.41-.24.82-.46,1.25-.67s.7-.34,1-.5l.4-.17c.28-.12.57-.24.86-.34l.36-.14.84-.29.12,0,.68-.21,1.14-.3c.51-.12,1-.23,1.53-.31.22-.05.43-.08.65-.11.5-.08,1-.14,1.49-.18l.62-.05h.24l.65,0h1.67a3,3,0,0,1,.42,0l.46,0h0l.87.08a23.22,23.22,0,0,1,2.63.42c.47.1.93.22,1.39.34l.3.08Z"/><path class="cls-18" d="M979.91,427.92a18.78,18.78,0,0,1,.51,9.05l-.85-.05c-.41,0-.83-.07-1.24-.12s-.81-.11-1.22-.18l-.6-.11c-.36-.07-.72-.15-1.07-.24l-1-.26-.83-.25h0l-1.12-.4c-.25-.09-.49-.18-.73-.29l-.73-.31-.17-.08-.88-.42-.2-.1c-.29-.15-.57-.31-.85-.47a.51.51,0,0,1-.16-.09l-.76-.45-.32-.21c-.26-.16-.51-.33-.76-.51l-.06,0c-.3-.21-.59-.42-.88-.65l-.08-.06-.45-.35-.18-.15q-.48-.39-.93-.81l-.17-.15c-.29-.26-.56-.53-.83-.81-.12-.11-.23-.23-.34-.35l-.07-.07c-.28-.3-.56-.6-.82-.92s-.49-.59-.72-.89a3.92,3.92,0,0,1-.25-.32,18.73,18.73,0,0,1,7.25-5.32,1.83,1.83,0,0,0,.13.16.76.76,0,0,0,.11.14,9.85,9.85,0,0,0,.67.78.49.49,0,0,0,.12.13,4.27,4.27,0,0,0,.36.38l.37.36c.2.2.4.38.61.56s.53.44.81.65h0c.35.27.72.52,1.09.76s.77.46,1.17.67l.08,0,.69.34.67.29.45.17a13.09,13.09,0,0,0,1.5.48c.36.1.71.18,1.07.25.52.1,1,.18,1.57.23Z"/><path class="cls-18" d="M967.91,402.14a16.49,16.49,0,0,0-2.52,12.92,18.75,18.75,0,0,1-8.45,3.28,24.94,24.94,0,0,1-.94-6.84,25.38,25.38,0,0,1,4.61-14.61A18.74,18.74,0,0,1,967.91,402.14Z"/><circle class="cls-20" cx="981.5" cy="411.5" r="50"/><path class="cls-20" d="M981.5,441.5a30,30,0,1,0,0-60,29.67,29.67,0,0,0-12.73,2.84c-.59.27-1.18.57-1.75.88a30,30,0,0,0-11,10.45,24.89,24.89,0,0,0-1.74,3.21,29.77,29.77,0,0,0-2.79,12.62,29.42,29.42,0,0,0,.8,6.87,30,30,0,0,0,29.2,23.13Z"/><path class="cls-20" d="M993.48,400.16c-.17-.18-.34-.36-.52-.53"/><path class="cls-20" d="M994,400.7l-.41-.45"/><path class="cls-20" d="M996.67,405c-.1-.24-.21-.47-.32-.7"/><path class="cls-20" d="M1006.49,406.41a22.2,22.2,0,0,1,.36,2.31"/><path class="cls-20" d="M1004,399.54c.16.28.3.57.44.86"/><path class="cls-20" d="M1003.13,398l.1.15a3.79,3.79,0,0,1,.2.34"/><path class="cls-20" d="M1002.28,396.74a7.43,7.43,0,0,1,.53.76"/><path class="cls-20" d="M999.59,393.53c.28.27.55.56.81.85"/><path class="cls-20" d="M967.88,390l.44-.27.29-.18.25-.14c.41-.24.82-.46,1.25-.67s.7-.34,1-.5l.4-.17c.28-.12.57-.24.86-.34l.36-.14.84-.29.12,0,.68-.21,1.14-.3c.51-.12,1-.23,1.53-.31.22-.05.43-.08.65-.11.5-.08,1-.14,1.49-.18l.62-.05h.24l.65,0h1.67a3,3,0,0,1,.42,0l.46,0h0l.87.08a23.22,23.22,0,0,1,2.63.42c.47.1.93.22,1.39.34l.3.08.41.13h0a18.63,18.63,0,0,1-2.74,8.56,12,12,0,0,0-1.18-.3c-.33-.08-.67-.14-1-.19s-.41-.06-.62-.08a5.7,5.7,0,0,0-.58-.06h-.21c-.23,0-.47,0-.71,0h-.41c-.36,0-.72,0-1.09,0s-.54,0-.81.07h-.09l-.51.07q-.68.1-1.35.27a10.34,10.34,0,0,0-1.24.35l-.54.19c-.18.06-.35.12-.53.2s-.5.2-.74.32-.43.2-.64.31l-.11.06c-.24.12-.47.25-.7.39a18.69,18.69,0,0,1-5.73-7Z"/><path class="cls-20" d="M968.64,421.83c.21.27.44.53.67.78"/><path class="cls-20" d="M966.87,432.38c-.3-.2-.6-.42-.88-.65"/><path class="cls-20" d="M973.61,435.75c-.38-.12-.75-.25-1.12-.4"/><path class="cls-20" d="M980.42,437a8.24,8.24,0,0,1-.85-.05"/><path class="cls-20" d="M971.68,420a12.85,12.85,0,0,1-3.15-7.71c0-.26,0-.53,0-.8a13,13,0,0,1,1-5c.18-.42.37-.84.59-1.24a13.1,13.1,0,0,1,3.32-3.93l.61-.46A13,13,0,1,1,971.68,420Z"/><path class="cls-20" d="M991.74,434.85c-.4.18-.8.35-1.2.49a6.34,6.34,0,0,1-.73.26"/><path class="cls-20" d="M997.72,431.17a10.72,10.72,0,0,1-.84.67"/><path class="cls-20" d="M1005.08,421.19a4.28,4.28,0,0,1-.23.55"/><path class="cls-20" d="M956.94,418.34a24.94,24.94,0,0,1-.94-6.84,25.38,25.38,0,0,1,4.61-14.61,18.74,18.74,0,0,1,7.3,5.25,16.49,16.49,0,0,0-2.52,12.92A18.75,18.75,0,0,1,956.94,418.34Z"/><path class="cls-20" d="M1006.85,408.72c0,.25,0,.51.07.77s0,.38,0,.56,0,.66,0,1a18.73,18.73,0,0,1-9,0,3,3,0,0,0,0-.42,1.41,1.41,0,0,0,0-.29c0-.2,0-.41-.06-.62a5,5,0,0,0-.08-.65c0-.1,0-.2,0-.31-.06-.35-.13-.69-.21-1s-.19-.73-.3-1.1a10.75,10.75,0,0,0-.39-1.13,5.49,5.49,0,0,0-.21-.51c-.1-.23-.2-.47-.32-.7a15,15,0,0,0-1.13-2l-.27-.39-.1-.14-.1-.13a5.37,5.37,0,0,0-.35-.45c-.13-.18-.28-.35-.43-.52a5.57,5.57,0,0,0-.41-.45.22.22,0,0,0-.08-.09c-.16-.18-.34-.36-.52-.53l-.52-.48a18.81,18.81,0,0,1,4.91-7.62c.5.39,1,.8,1.45,1.24.27.24.53.5.79.76s.55.56.81.85.52.59.77.89.48.59.7.89c.09.11.17.23.26.35s.11.15.15.23c.19.25.36.5.53.76h0c.1.16.21.32.31.49a4.94,4.94,0,0,1,.3.49c.21.34.4.69.59,1.05s.3.57.44.86c0,.11.1.22.16.33.14.3.27.6.4.9s.31.76.45,1.15c.25.7.47,1.4.66,2.11.07.25.13.51.19.76s.12.51.17.76Q1006.71,407.57,1006.85,408.72Z"/><path class="cls-20" d="M989.81,435.6a18.8,18.8,0,0,1-2.82-8.54q.48-.17.93-.36l.11-.05q.53-.22,1-.48c.33-.17.66-.35,1-.55s.64-.4,1-.62.72-.52,1.06-.81.68-.58,1-.9c.16-.16.33-.32.48-.49s.31-.33.46-.51.27-.31.39-.47.33-.41.48-.62.26-.36.38-.55.19-.29.28-.43.22-.36.32-.54.29-.52.42-.79.26-.53.38-.8a18.76,18.76,0,0,1,8.76,2.31c-.1.27-.2.53-.31.79s-.15.37-.23.55-.17.4-.27.6a25.67,25.67,0,0,1-1.33,2.47c-.2.32-.4.64-.61.95l-.51.73c-.35.48-.7.94-1.09,1.38-.18.23-.38.46-.58.68l-.25.27c-.2.22-.4.43-.62.64a1.45,1.45,0,0,1-.17.18c-.23.23-.46.45-.7.66a.86.86,0,0,1-.14.13c-.28.26-.57.5-.86.74s-.56.45-.84.67l-.24.18c-.23.17-.46.34-.7.5l-.54.36c-.44.28-.89.56-1.34.81s-.85.47-1.29.69c-.13.05-.25.12-.38.18l-.65.29c-.4.17-.8.34-1.2.49Z"/><path class="cls-20" d="M980.42,437l-.85-.05c-.41,0-.83-.07-1.24-.12s-.81-.11-1.22-.18l-.6-.11c-.36-.07-.72-.15-1.07-.24l-1-.26-.83-.25h0l-1.12-.4c-.25-.09-.49-.18-.73-.29l-.73-.31-.17-.08-.88-.42-.2-.1c-.29-.15-.57-.31-.85-.47a.51.51,0,0,1-.16-.09l-.76-.45-.32-.21c-.26-.16-.51-.33-.76-.51l-.06,0c-.3-.21-.59-.42-.88-.65l-.08-.06-.45-.35-.18-.15q-.48-.39-.93-.81l-.17-.15c-.29-.26-.56-.53-.83-.81-.12-.11-.23-.23-.34-.35l-.07-.07c-.28-.3-.56-.6-.82-.92s-.49-.59-.72-.89a3.92,3.92,0,0,1-.25-.32,18.73,18.73,0,0,1,7.25-5.32,1.83,1.83,0,0,0,.13.16.76.76,0,0,0,.11.14,9.85,9.85,0,0,0,.67.78.49.49,0,0,0,.12.13,4.27,4.27,0,0,0,.36.38l.37.36c.2.2.4.38.61.56s.53.44.81.65h0c.35.27.72.52,1.09.76s.77.46,1.17.67l.08,0,.69.34.67.29.45.17a13.09,13.09,0,0,0,1.5.48c.36.1.71.18,1.07.25.52.1,1,.18,1.57.23h0A18.78,18.78,0,0,1,980.42,437Z"/><path class="cls-21" d="M940,278.5V308H887V240h10.5C908,241,941,261,940,278.5Z"/><path class="cls-21" d="M847,240h32a0,0,0,0,1,0,0v68a0,0,0,0,1,0,0H842a0,0,0,0,1,0,0V245A5,5,0,0,1,847,240Z"/><rect class="cls-22" x="834" y="325" width="18" height="8" rx="4" ry="4"/><rect class="cls-22" x="891" y="325" width="18" height="8" rx="4" ry="4"/><rect class="cls-23" x="675" y="384" width="10" height="6" rx="3" ry="3"/><line class="cls-24" x1="824.5" y1="313.17" x2="824.5" y2="421.53"/><line class="cls-25" x1="792" y1="392" x2="925" y2="392"/><rect class="cls-26" x="665.33" y="305.33" width="163.17" height="7.83" rx="3.92" ry="3.92"/></g></svg>