<svg id="RV" xmlns="http://www.w3.org/2000/svg" viewBox="0 0 1388 624"><defs><style>.cls-1{fill:#fff;}.cls-2,.cls-3,.cls-6,.cls-7{fill:none;}.cls-10,.cls-11,.cls-2,.cls-3,.cls-4,.cls-6,.cls-7,.cls-8,.cls-9{stroke:#000;}.cls-2,.cls-3,.cls-6{stroke-linecap:round;}.cls-10,.cls-11,.cls-2,.cls-4,.cls-7,.cls-8,.cls-9{stroke-miterlimit:10;}.cls-2,.cls-4,.cls-6,.cls-7{stroke-width:7px;}.cls-3,.cls-6{stroke-linejoin:round;}.cls-3{stroke-width:6px;}.cls-4,.cls-5{fill:#d6d2e9;}.cls-8{stroke-width:4px;}.cls-9{fill:#ccc;stroke-width:3px;}.cls-10{fill:#999;stroke-width:2px;}.cls-11{fill:#1a1a1a;}</style></defs><title>class-b</title><path d="M373.5,40.5h-142l0-3.5H373.35q.15,1.59.15,3.21Z"/><path d="M373.35,37H231.53l.18-21.55A11.23,11.23,0,0,1,242.9,4.25h94.64A36.07,36.07,0,0,1,373.35,37Z"/><path class="cls-1" d="M373.5,40.21q0-1.62-.15-3.21H955c76.36,0,118.7,32.56,167,85,35,38,72.31,97.47,105,135,45,51.69,78,39,140.24,122.46C1387.06,406.05,1387,434.39,1387,469a63,63,0,0,1-52.59,62.14q.09-2.05.09-4.14a112.5,112.5,0,0,0-225,0c0,1.68,0,3.34.12,5H468.38c.08-1.66.12-3.32.12-5a112.5,112.5,0,0,0-225,0c0,1.68,0,3.34.12,5H36.54A31.67,31.67,0,0,1,4.92,498.52L24,166C24,76.81,75.31,37,164.5,37h67l0,3.5h142Z"/><path class="cls-2" d="M373.35,37H955c76.36,0,118.7,32.56,167,85,35,38,72.31,97.47,105,135,45,51.69,78,39,140.24,122.46C1387.06,406.05,1387,434.39,1387,469a63,63,0,0,1-52.59,62.14"/><path class="cls-2" d="M243.62,532H36.54A31.67,31.67,0,0,1,4.92,498.52L24,166C24,76.81,75.31,37,164.5,37h67"/><line class="cls-2" x1="1109.62" y1="532" x2="468.38" y2="532"/><path class="cls-2" d="M243.62,532c-.08-1.66-.12-3.32-.12-5a112.5,112.5,0,0,1,225,0c0,1.68,0,3.34-.12,5"/><path class="cls-2" d="M1109.62,532c-.08-1.66-.12-3.32-.12-5a112.5,112.5,0,0,1,225,0q0,2.09-.09,4.14"/><path class="cls-3" d="M231.53,37l.18-21.55A11.23,11.23,0,0,1,242.9,4.25h94.64A36.07,36.07,0,0,1,373.35,37"/><path class="cls-4" d="M919.83,305.5H115a7.66,7.66,0,0,1-7.67-7.67l20-145.72a7.67,7.67,0,0,1,7.67-7.67H931.83a7.67,7.67,0,0,1,7.67,7.67l-12,145.72A7.66,7.66,0,0,1,919.83,305.5Z"/><path class="cls-1" d="M1204.5,299.5l2.46,99.19c-53.17,5.52-95.8,43.17-109.94,93.27l-2.26,0-123.91,1V150.15l46.32-.25-40.62.36c-3.41,0-5.17.76-5.17,4.17v108.3c0,3.41,1.76,6.17,5.17,6.17l223.62,37c3.4,0,4.17-2.76,4.17-6.17l-22.17-30.14Z"/><path class="cls-5" d="M1182.17,269.59l22.17,30.14c0,3.41-.77,6.17-4.17,6.17l-223.62-37c-3.41,0-5.17-2.76-5.17-6.17V154.43c0-3.41,1.76-4.17,5.17-4.17l40.62-.36,74.82-.4a4.19,4.19,0,0,1,.7.26Z"/><path class="cls-5" d="M1182.17,269.59l-89.48-119.83c2,.81,3.48,2.61,4.81,4.74Z"/><path class="cls-5" d="M1092,149.5l-74.82.4,73-.64A7,7,0,0,1,1092,149.5Z"/><path class="cls-6" d="M1182.17,269.59l22.17,30.14c0,3.41-.77,6.17-4.17,6.17l-223.62-37c-3.41,0-5.17-2.76-5.17-6.17V154.43c0-3.41,1.76-4.17,5.17-4.17l40.62-.36,73-.64a7,7,0,0,1,1.82.24,4.19,4.19,0,0,1,.7.26c2,.81,3.48,2.61,4.81,4.74Z"/><polyline class="cls-6" points="1097.02 491.96 1094.76 491.98 970.85 493 970.85 150.15 1017.17 149.9 1091.99 149.5 1092.5 149.5 1092.69 149.76 1182.17 269.59 1204.5 299.5 1206.96 398.69"/><path class="cls-6" d="M1097,492c14.14-50.1,56.77-87.75,109.94-93.27"/><rect class="cls-7" x="987.26" y="324.88" width="16.89" height="23.2"/><circle class="cls-8" cx="358.06" cy="524.53" r="98"/><circle class="cls-9" cx="358.06" cy="524.53" r="66.42"/><circle class="cls-10" cx="358.06" cy="524.53" r="16.33"/><path class="cls-11" d="M365.5,497.31H350.61c-2.35,0-2.38-1.58-3.44-3.45l-8.24-17.06c-.68-2.09,2.73-3.45,6.06-3.45h26.13c3.33,0,6.84,1.6,6.06,3.45l-8.24,17.06C368.13,495.54,367.39,497.31,365.5,497.31Z"/><path class="cls-11" d="M338.2,504.47l-7.44,12.89c-1.18,2-2.55,1.28-4.71,1.26l-18.89-1.4c-2.15-.45-1.62-4.08,0-7l13.07-22.64c1.66-2.88,4.8-5.12,6-3.52l10.66,15.66C338,501.31,339.15,502.83,338.2,504.47Z"/><path class="cls-11" d="M330.76,531.7l7.44,12.88c1.18,2-.17,2.85-1.26,4.71L326.28,565c-1.47,1.64-4.35-.63-6-3.52L307.2,538.8c-1.66-2.88-2-6.72,0-7l18.89-1.4C327.91,530.3,329.81,530.05,330.76,531.7Z"/><path class="cls-11" d="M350.61,551.75H365.5c2.36,0,2.38,1.57,3.44,3.45l8.24,17.06c.68,2.09-2.73,3.45-6.06,3.45H345c-3.33,0-6.84-1.6-6.06-3.45l8.24-17.06C348,553.52,348.72,551.75,350.61,551.75Z"/><path class="cls-11" d="M377.91,544.58l7.44-12.88c1.18-2.05,2.55-1.28,4.71-1.27l18.89,1.4c2.15.46,1.62,4.09,0,7l-13.07,22.63c-1.66,2.89-4.8,5.13-6,3.52l-10.66-15.66C378.13,547.75,377,546.23,377.91,544.58Z"/><path class="cls-11" d="M385.35,517.36l-7.44-12.89c-1.18-2,.17-2.85,1.26-4.71l10.66-15.66c1.47-1.63,4.35.64,6,3.52l13.07,22.64c1.66,2.88,2,6.72,0,7l-18.89,1.4C388.2,518.76,386.3,519,385.35,517.36Z"/><circle class="cls-8" cx="1223.06" cy="524.53" r="98"/><circle class="cls-9" cx="1223.06" cy="524.53" r="66.42"/><circle class="cls-10" cx="1223.06" cy="524.53" r="16.33"/><path class="cls-11" d="M1230.5,497.31h-14.89c-2.35,0-2.38-1.58-3.44-3.45l-8.24-17.06c-.68-2.09,2.73-3.45,6.06-3.45h26.13c3.33,0,6.84,1.6,6.06,3.45l-8.24,17.06C1233.13,495.54,1232.39,497.31,1230.5,497.31Z"/><path class="cls-11" d="M1203.2,504.47l-7.44,12.89c-1.18,2-2.55,1.28-4.71,1.26l-18.89-1.4c-2.15-.45-1.62-4.08,0-7l13.07-22.64c1.66-2.88,4.8-5.12,6-3.52l10.66,15.66C1203,501.31,1204.15,502.83,1203.2,504.47Z"/><path class="cls-11" d="M1195.76,531.7l7.44,12.88c1.18,2-.17,2.85-1.26,4.71L1191.28,565c-1.47,1.64-4.35-.63-6-3.52L1172.2,538.8c-1.66-2.88-2-6.72,0-7l18.89-1.4C1192.91,530.3,1194.81,530.05,1195.76,531.7Z"/><path class="cls-11" d="M1215.61,551.75h14.89c2.36,0,2.38,1.57,3.44,3.45l8.24,17.06c.68,2.09-2.73,3.45-6.06,3.45H1210c-3.33,0-6.84-1.6-6.06-3.45l8.24-17.06C1213,553.52,1213.72,551.75,1215.61,551.75Z"/><path class="cls-11" d="M1242.91,544.58l7.44-12.88c1.18-2.05,2.55-1.28,4.71-1.27l18.89,1.4c2.15.46,1.62,4.09,0,7l-13.07,22.63c-1.66,2.89-4.8,5.13-6,3.52l-10.66-15.66C1243.13,547.75,1242,546.23,1242.91,544.58Z"/><path class="cls-11" d="M1250.35,517.36l-7.44-12.89c-1.18-2,.17-2.85,1.26-4.71l10.66-15.66c1.47-1.63,4.35.64,6,3.52l13.07,22.64c1.66,2.88,2,6.72,0,7l-18.89,1.4C1253.2,518.76,1251.3,519,1250.35,517.36Z"/></svg>