<svg id="RV" xmlns="http://www.w3.org/2000/svg" viewBox="0 0 1475 601"><defs><style>.cls-1,.cls-9{fill:#fff;}.cls-11,.cls-2,.cls-3{fill:none;}.cls-11,.cls-2,.cls-3,.cls-4,.cls-5,.cls-6,.cls-7,.cls-8,.cls-9{stroke:#000;}.cls-2{stroke-linecap:round;stroke-linejoin:round;}.cls-2,.cls-3,.cls-8,.cls-9{stroke-width:7px;}.cls-11,.cls-3,.cls-4,.cls-5,.cls-6,.cls-7,.cls-8,.cls-9{stroke-miterlimit:10;}.cls-4{stroke-width:4px;}.cls-5{fill:#ccc;stroke-width:3px;}.cls-6{fill:#999;stroke-width:2px;}.cls-7{fill:#1a1a1a;}.cls-10,.cls-8{fill:#d6d2e9;}.cls-11{stroke-width:15px;}</style></defs><title>class-c</title><path class="cls-1" d="M1183,221l13.38,294H1028.5V236.33a15.83,15.83,0,0,1,15.83-15.83l138.27.5Z"/><path class="cls-1" d="M1469,379.19V488.33a26.67,26.67,0,0,1-20.09,25.85c.06-1.39.09-2.78.09-4.18a101,101,0,0,0-202,0c0,1.68,0,3.34.12,5h-50.74L1183,221l97,101,179.85,45.44A12.12,12.12,0,0,1,1469,379.19Z"/><path class="cls-1" d="M946,38h239c97.76,0,258.91,125.8,127.15,180.94a27.12,27.12,0,0,1-10.48,2.06H1182.6l-138.27-.5a15.83,15.83,0,0,0-15.83,15.83V515H416.88c.08-1.66.12-3.32.12-5a101,101,0,0,0-202,0c0,1.68,0,3.34.12,5H134L3,488V38H775.33v3.5H946Z"/><path d="M775.33,10.46A6.46,6.46,0,0,1,781.79,4H917.62A28.37,28.37,0,0,1,946,32.38V38H775.33Z"/><path d="M946,38v3.5H775.33V38Z"/><path class="cls-2" d="M1183,221l97,101,179.85,45.44a12.12,12.12,0,0,1,9.15,11.75V488.33a26.67,26.67,0,0,1-20.09,25.85"/><path class="cls-2" d="M946,38h239c97.76,0,258.91,125.8,127.15,180.94a27.12,27.12,0,0,1-10.48,2.06H1183"/><path class="cls-2" d="M215.12,515H134L3,488V38H775.33"/><polyline class="cls-2" points="1247.12 515 1196.38 515 1028.5 515 416.88 515"/><path class="cls-2" d="M215.12,515c-.08-1.66-.12-3.32-.12-5a101,101,0,0,1,202,0c0,1.68,0,3.34-.12,5"/><path class="cls-2" d="M1247.12,515c-.08-1.66-.12-3.32-.12-5a101,101,0,0,1,202,0c0,1.4,0,2.79-.09,4.18"/><path class="cls-3" d="M1028.5,515V236.33a15.83,15.83,0,0,1,15.83-15.83l138.27.5h.4"/><path class="cls-3" d="M775.33,38V10.46A6.46,6.46,0,0,1,781.79,4H917.62A28.37,28.37,0,0,1,946,32.38V38"/><circle class="cls-4" cx="316.06" cy="507.53" r="89"/><circle class="cls-5" cx="316.06" cy="507.53" r="60.32"/><circle class="cls-6" cx="316.06" cy="507.53" r="14.83"/><path class="cls-7" d="M322.81,482.81H309.3c-2.14,0-2.17-1.43-3.13-3.13l-7.48-15.5c-.62-1.89,2.47-3.13,5.5-3.13h23.73c3,0,6.21,1.45,5.5,3.13l-7.48,15.5C325.2,481.2,324.53,482.81,322.81,482.81Z"/><path class="cls-7" d="M298,489.32,291.27,501c-1.08,1.86-2.32,1.16-4.28,1.15l-17.16-1.28c-1.95-.41-1.47-3.7,0-6.32L281.74,474c1.51-2.62,4.36-4.65,5.46-3.19L296.88,485C297.83,486.44,298.88,487.82,298,489.32Z"/><path class="cls-7" d="M291.27,514l6.75,11.7c1.07,1.86-.15,2.59-1.14,4.28l-9.68,14.22c-1.33,1.49-3.95-.58-5.46-3.2l-11.87-20.55c-1.51-2.62-1.85-6.1,0-6.33L287,512.89C288.68,512.77,290.41,512.55,291.27,514Z"/><path class="cls-7" d="M309.3,532.25h13.51c2.15,0,2.17,1.43,3.13,3.13l7.48,15.5c.62,1.89-2.47,3.13-5.5,3.13H304.19c-3,0-6.21-1.46-5.5-3.13l7.48-15.5C306.91,533.86,307.58,532.25,309.3,532.25Z"/><path class="cls-7" d="M334.09,525.74l6.75-11.7c1.08-1.86,2.32-1.16,4.28-1.15l17.16,1.27c2,.41,1.47,3.71,0,6.33L350.37,541c-1.51,2.62-4.36,4.66-5.46,3.2L335.23,530C334.28,528.62,333.23,527.23,334.09,525.74Z"/><path class="cls-7" d="M340.84,501l-6.75-11.7c-1.07-1.86.15-2.59,1.14-4.28l9.68-14.22c1.33-1.49,3.95.57,5.46,3.19l11.87,20.56c1.51,2.62,1.85,6.1,0,6.32l-17.16,1.28C343.43,502.29,341.7,502.51,340.84,501Z"/><circle class="cls-4" cx="1348.06" cy="507.53" r="89"/><circle class="cls-5" cx="1348.06" cy="507.53" r="60.32"/><circle class="cls-6" cx="1348.06" cy="507.53" r="14.83"/><path class="cls-7" d="M1354.81,482.81H1341.3c-2.14,0-2.17-1.43-3.13-3.13l-7.48-15.5c-.62-1.89,2.47-3.13,5.5-3.13h23.73c3,0,6.21,1.45,5.5,3.13l-7.48,15.5C1357.2,481.2,1356.53,482.81,1354.81,482.81Z"/><path class="cls-7" d="M1330,489.32l-6.75,11.7c-1.08,1.86-2.32,1.16-4.28,1.15l-17.16-1.28c-1.95-.41-1.47-3.7,0-6.32L1313.74,474c1.51-2.62,4.36-4.65,5.46-3.19l9.68,14.22C1329.83,486.44,1330.88,487.82,1330,489.32Z"/><path class="cls-7" d="M1323.27,514l6.75,11.7c1.07,1.86-.15,2.59-1.14,4.28l-9.68,14.22c-1.33,1.49-4-.58-5.46-3.2l-11.87-20.55c-1.51-2.62-1.85-6.1,0-6.33l17.16-1.27C1320.68,512.77,1322.41,512.55,1323.27,514Z"/><path class="cls-7" d="M1341.3,532.25h13.51c2.15,0,2.17,1.43,3.13,3.13l7.48,15.5c.62,1.89-2.47,3.13-5.5,3.13h-23.73c-3,0-6.21-1.46-5.5-3.13l7.48-15.5C1338.91,533.86,1339.58,532.25,1341.3,532.25Z"/><path class="cls-7" d="M1366.09,525.74l6.75-11.7c1.08-1.86,2.32-1.16,4.28-1.15l17.16,1.27c2,.41,1.47,3.71,0,6.33L1382.37,541c-1.51,2.62-4.36,4.66-5.46,3.2L1367.23,530C1366.28,528.62,1365.23,527.23,1366.09,525.74Z"/><path class="cls-7" d="M1372.84,501l-6.75-11.7c-1.07-1.86.15-2.59,1.14-4.28l9.68-14.22c1.33-1.49,3.95.57,5.46,3.19l11.87,20.56c1.51,2.62,1.85,6.1,0,6.32l-17.16,1.28C1375.43,502.29,1373.7,502.51,1372.84,501Z"/><rect class="cls-8" x="682.35" y="130.44" width="296.15" height="163.06" rx="7.67" ry="7.67"/><rect class="cls-8" x="1053.95" y="87.62" width="158.55" height="80.88" rx="7.67" ry="7.67"/><rect class="cls-8" x="81.95" y="158.62" width="175.55" height="80.88" rx="7.67" ry="7.67"/><rect class="cls-9" x="489.85" y="168.15" width="147.15" height="324.85"/><rect class="cls-8" x="514.38" y="203.31" width="100.43" height="110.52" rx="6.17" ry="6.17"/><rect class="cls-3" x="499.78" y="335.6" width="10.22" height="21.98"/><path class="cls-1" d="M1264.33,341v91.4a111.94,111.94,0,0,0-27.18,56.27H1061.33V338Z"/><polygon class="cls-10" points="1169.67 242 1264.33 341 1061.33 338 1061.33 242 1169.67 242"/><polyline class="cls-3" points="1237.15 488.67 1061.33 488.67 1061.33 338 1061.33 242 1169.67 242 1264.33 341 1264.33 432.4"/><path class="cls-3" d="M1237.15,488.67a111.94,111.94,0,0,1,27.18-56.27"/><line class="cls-3" x1="1061.33" y1="338" x2="1264.33" y2="341"/><line class="cls-11" x1="402.64" y1="87.62" x2="1008" y2="87.62"/><rect x="1005" y="87.62" width="6" height="293.38"/><rect x="399.64" y="87.62" width="6" height="293.38"/></svg>