<svg id="RV" xmlns="http://www.w3.org/2000/svg" viewBox="0 0 1167.04 454.53"><defs><style>.cls-1,.cls-10{fill:#fff;}.cls-2,.cls-6{fill:#d6d2e9;}.cls-3{fill:#4d4d4d;}.cls-11,.cls-4,.cls-5,.cls-7,.cls-8{fill:none;}.cls-10,.cls-11,.cls-12,.cls-13,.cls-14,.cls-15,.cls-4,.cls-5,.cls-6,.cls-7,.cls-8,.cls-9{stroke:#000;}.cls-4,.cls-8,.cls-9{stroke-linecap:round;stroke-linejoin:round;}.cls-10,.cls-4,.cls-5,.cls-6{stroke-width:7px;}.cls-10,.cls-11,.cls-12,.cls-13,.cls-14,.cls-15,.cls-5,.cls-6,.cls-7{stroke-miterlimit:10;}.cls-7{stroke-width:15px;}.cls-11,.cls-8{stroke-width:5px;}.cls-12{stroke-width:4px;}.cls-13{fill:#ccc;stroke-width:3px;}.cls-14{fill:#999;stroke-width:2px;}.cls-15{fill:#1a1a1a;}</style></defs><title>class-a</title><path class="cls-1" d="M1139.18,241.82c11.41,76.22,34.4,140.3-35.74,161.56H1065a73.13,73.13,0,0,0,1.25-13.5c0-37.83-23-71.5-66.5-71.5-40,0-64.67,31.28-66.4,67.41C859.84,353.65,792,293.85,792,225.38,792,131,857.56,53,942.42,41.38h42.21c43.84,6.56,82.92,34.14,110.75,73.65l-33.24,1.13c-6.6,0-16.34,2.5-14,9l51,104.66c4.16,6.84,6.4,12,13,12Z"/><path class="cls-2" d="M1139.18,241.82h-27c-6.6,0-8.84-5.16-13-12l-51-104.66c-2.34-6.5,7.4-9,14-9l33.24-1.13c21.8,30.93,36.69,69.17,41.58,110.35Q1137.95,233.68,1139.18,241.82Z"/><path class="cls-3" d="M1066.21,389.88a73.13,73.13,0,0,1-1.25,13.5h-3.7a63,63,0,1,0-124.49-16.1c-1.16-.49-2.31-1-3.46-1.49,1.73-36.13,26.4-67.41,66.4-67.41C1043.21,318.38,1066.21,352.05,1066.21,389.88Z"/><path class="cls-1" d="M797.44,41.38h145C857.56,53,792,131,792,225.38c0,68.47,67.88,128.27,141.35,160.41-.07,1.35-.1,2.72-.1,4.09a73.13,73.13,0,0,0,1.25,13.5H407.21a73.13,73.13,0,0,0,1.25-13.5c0-37.83-23-71.5-66.5-71.5-41.5,0-66.5,33.67-66.5,71.5a73.13,73.13,0,0,0,1.25,13.5H175L21,360.94,28,41.38H239v2a12,12,0,0,0,12,12H370.63a12,12,0,0,0,12-12v-2H671.77a12.05,12.05,0,0,0,11.48,8.5H786A12.05,12.05,0,0,0,797.44,41.38Z"/><path d="M798,27.88v10a11.9,11.9,0,0,1-.52,3.5H671.77a11.9,11.9,0,0,1-.52-3.5v-10a12,12,0,0,1,12-12H786A12,12,0,0,1,798,27.88Z"/><path class="cls-3" d="M408.46,389.88a73.13,73.13,0,0,1-1.25,13.5h-3.7a63,63,0,1,0-123.1,0h-3.7a73.13,73.13,0,0,1-1.25-13.5c0-37.83,25-71.5,66.5-71.5C385.46,318.38,408.46,352.05,408.46,389.88Z"/><path d="M382.63,31.79v9.59H239V19.79H370.63A12,12,0,0,1,382.63,31.79Z"/><path class="cls-4" d="M280.41,403.38a63,63,0,1,1,123.1,0"/><polyline class="cls-5" points="280.41 403.38 276.71 403.38 174.96 403.38 20.96 360.94 27.96 41.38 238.96 41.38 382.63 41.38 671.77 41.38 797.44 41.38 942.42 41.38 984.63 41.38"/><polyline class="cls-5" points="938.16 403.38 934.46 403.38 407.21 403.38 403.51 403.38"/><polyline class="cls-5" points="1103.44 403.38 1064.96 403.38 1061.26 403.38"/><path class="cls-5" d="M984.63,41.38c43.84,6.56,82.92,34.14,110.75,73.65,21.8,30.93,36.69,69.17,41.58,110.35q1,8.3,2.22,16.44c11.41,76.22,34.4,140.3-35.74,161.56"/><path class="cls-5" d="M938.16,403.38a63.24,63.24,0,0,1-1.45-13.5c0-.87,0-1.74.06-2.6a63,63,0,1,1,124.49,16.1"/><path class="cls-5" d="M671.77,41.38a11.9,11.9,0,0,1-.52-3.5v-10a12,12,0,0,1,12-12H786a12,12,0,0,1,12,12v10a11.9,11.9,0,0,1-.52,3.5"/><path class="cls-4" d="M239,41.38V19.79H370.63a12,12,0,0,1,12,12v9.59"/><path class="cls-4" d="M276.71,403.38a73.13,73.13,0,0,1-1.25-13.5c0-37.83,25-71.5,66.5-71.5,43.5,0,66.5,33.67,66.5,71.5a73.13,73.13,0,0,1-1.25,13.5"/><path class="cls-4" d="M934.46,403.38a73.13,73.13,0,0,1-1.25-13.5c0-1.37,0-2.74.1-4.09,1.73-36.13,26.4-67.41,66.4-67.41,43.5,0,66.5,33.67,66.5,71.5a73.13,73.13,0,0,1-1.25,13.5"/><path class="cls-5" d="M1139.18,241.82h-27c-6.6,0-8.84-5.16-13-12l-51-104.66c-2.34-6.5,7.4-9,14-9l33.24-1.13"/><rect class="cls-6" x="112.23" y="115.16" width="134.78" height="176" rx="7.67" ry="7.67" transform="translate(382.78 23.53) rotate(90)"/><rect class="cls-6" x="690.96" y="118.88" width="117.33" height="149.67" rx="7.67" ry="7.67"/><line class="cls-7" x1="377.96" y1="76.64" x2="872.46" y2="76.64"/><rect x="869.46" y="76.64" width="6" height="201.7"/><rect x="374.96" y="76.64" width="6" height="201.7"/><line class="cls-8" x1="529.96" y1="240.38" x2="529.96" y2="289.38"/><circle class="cls-9" cx="529.96" cy="240.38" r="5.5"/><circle class="cls-9" cx="529.96" cy="289.38" r="5.5"/><rect class="cls-10" x="544.58" y="113.79" width="104.37" height="271.91"/><rect class="cls-6" x="561.98" y="143.23" width="71.24" height="92.51" rx="6.17" ry="6.17"/><rect class="cls-11" x="551.62" y="253.95" width="7.25" height="18.4"/><rect class="cls-10" x="671.25" y="331.21" width="144.38" height="70.42"/><path class="cls-6" d="M1076,227.45v29.1a12,12,0,0,1-12,12H904.21a12,12,0,0,1-12-12V132.88a12,12,0,0,1,12-12H1012a12,12,0,0,1,11,7.34,183.49,183.49,0,0,0,8.7,18.44l43.23,76.91A7.89,7.89,0,0,1,1076,227.45Z"/><g id="Tires"><circle class="cls-12" cx="342.29" cy="391.17" r="53"/><circle class="cls-13" cx="342.29" cy="391.17" r="35.92"/><circle class="cls-14" cx="342.29" cy="391.17" r="8.83"/><path class="cls-15" d="M346.31,376.45h-8c-1.28,0-1.29-.85-1.87-1.86L332,365.36c-.37-1.13,1.47-1.86,3.27-1.86h14.14c1.8,0,3.7.86,3.27,1.86l-4.45,9.23C347.74,375.5,347.34,376.45,346.31,376.45Z"/><path class="cls-15" d="M331.55,380.33l-4,7c-.64,1.1-1.38.69-2.55.68l-10.22-.76c-1.16-.24-.87-2.2,0-3.76l7.06-12.24c.9-1.56,2.6-2.77,3.26-1.91l5.76,8.47C331.43,378.62,332.06,379.44,331.55,380.33Z"/><path class="cls-15" d="M327.53,395.05l4,7c.64,1.11-.09,1.54-.68,2.55L325.11,413c-.8.88-2.36-.35-3.26-1.91l-7.06-12.24c-.9-1.56-1.1-3.63,0-3.76l10.22-.76C326,394.3,327,394.16,327.53,395.05Z"/><path class="cls-15" d="M338.27,405.9h8c1.28,0,1.29.85,1.87,1.86l4.45,9.23c.37,1.13-1.47,1.86-3.27,1.86H335.22c-1.8,0-3.7-.86-3.27-1.86l4.45-9.23C336.84,406.85,337.24,405.9,338.27,405.9Z"/><path class="cls-15" d="M353,402l4-7c.64-1.1,1.38-.69,2.55-.68l10.21.76c1.17.24.88,2.2,0,3.76l-7.06,12.24c-.9,1.56-2.6,2.77-3.26,1.91l-5.76-8.47C353.14,403.73,352.51,402.91,353,402Z"/><path class="cls-15" d="M357.05,387.3l-4-7c-.64-1.11.09-1.54.68-2.55l5.76-8.47c.8-.88,2.36.35,3.26,1.91l7.06,12.24c.9,1.56,1.1,3.63,0,3.76L359.6,388C358.59,388.05,357.56,388.19,357.05,387.3Z"/><circle class="cls-12" cx="1000.29" cy="391.17" r="53"/><circle class="cls-13" cx="1000.29" cy="391.17" r="35.92"/><circle class="cls-14" cx="1000.29" cy="391.17" r="8.83"/><path class="cls-15" d="M1004.31,376.45h-8c-1.28,0-1.29-.85-1.87-1.86L990,365.36c-.37-1.13,1.47-1.86,3.27-1.86h14.14c1.8,0,3.7.86,3.27,1.86l-4.45,9.23C1005.74,375.5,1005.34,376.45,1004.31,376.45Z"/><path class="cls-15" d="M989.55,380.33l-4,7c-.64,1.1-1.38.69-2.55.68l-10.22-.76c-1.16-.24-.87-2.2,0-3.76l7.06-12.24c.9-1.56,2.6-2.77,3.26-1.91l5.76,8.47C989.43,378.62,990.06,379.44,989.55,380.33Z"/><path class="cls-15" d="M985.53,395.05l4,7c.64,1.11-.09,1.54-.68,2.55L983.11,413c-.8.88-2.36-.35-3.26-1.91l-7.06-12.24c-.9-1.56-1.1-3.63,0-3.76l10.22-.76C984,394.3,985,394.16,985.53,395.05Z"/><path class="cls-15" d="M996.27,405.9h8c1.28,0,1.29.85,1.87,1.86l4.45,9.23c.37,1.13-1.47,1.86-3.27,1.86H993.22c-1.8,0-3.7-.86-3.27-1.86l4.45-9.23C994.84,406.85,995.24,405.9,996.27,405.9Z"/><path class="cls-15" d="M1011,402l4-7c.64-1.1,1.38-.69,2.55-.68l10.21.76c1.17.24.88,2.2,0,3.76l-7.06,12.24c-.9,1.56-2.6,2.77-3.26,1.91l-5.76-8.47C1011.14,403.73,1010.51,402.91,1011,402Z"/><path class="cls-15" d="M1015.05,387.3l-4-7c-.64-1.11.09-1.54.68-2.55l5.76-8.47c.8-.88,2.36.35,3.26,1.91l7.06,12.24c.9,1.56,1.1,3.63,0,3.76l-10.21.76C1016.59,388.05,1015.56,388.19,1015.05,387.3Z"/></g><rect class="cls-11" x="734.82" y="343.47" width="17.24" height="13.41" rx="3.33" ry="3.33"/></svg>