<svg xmlns="http://www.w3.org/2000/svg" xmlns:xlink="http://www.w3.org/1999/xlink" viewBox="0 0 867.9 687.47"><defs><style>.cls-1,.cls-13,.cls-15,.cls-16,.cls-9{fill:none;}.cls-2{clip-path:url(#clip-path);}.cls-3{fill:#bfd1ff;}.cls-4{opacity:0.64;}.cls-5{fill:#006837;}.cls-6{fill:#ccc;}.cls-7{fill:#22b573;}.cls-8{fill:#f2f2f2;}.cls-13,.cls-14,.cls-15,.cls-16,.cls-17,.cls-9{stroke:#000;}.cls-16,.cls-9{stroke-miterlimit:10;}.cls-14,.cls-9{stroke-width:2px;}.cls-10{fill:#8c6239;}.cls-11{fill:#b3b3b3;}.cls-12{fill:#c69c6d;}.cls-13,.cls-14{stroke-linecap:round;}.cls-13,.cls-14,.cls-15,.cls-17{stroke-linejoin:round;}.cls-13{stroke-width:0.5px;}.cls-14{fill:url(#linear-gradient);}.cls-15{stroke-width:14px;}.cls-16{stroke-width:21px;}.cls-17{fill:#b97700;stroke-width:20px;}</style><clipPath id="clip-path"><rect class="cls-1" x="-3" y="-1.95" width="871.22" height="687.24" rx="123.53" ry="123.53"/></clipPath><linearGradient id="linear-gradient" x1="684.55" y1="511.58" x2="1048.96" y2="875.99" gradientUnits="userSpaceOnUse"><stop offset="0" stop-color="#00bf5c"/><stop offset="0.56" stop-color="#027f00"/></linearGradient></defs><title>Artboard 2</title><g id="Mask"><g class="cls-2"><rect class="cls-3" x="-39.33" y="-81.52" width="986.72" height="777.5"/><g class="cls-4"><path class="cls-5" d="M885.22,244.32l355.32,420.85H739.27V232.8c6.07,17.36,20.87,62,34.36,60,11.92-1.77,18.93-41.86,20.61-46.8s5.9-21.53,10.31-18.31,37.8,61,48.38,63.72C872.92,296.51,884.23,248.71,885.22,244.32Z"/><path class="cls-6" d="M739.27,71.45l146,172.87c-1,4.39-12.3,52.19-32.29,47.12-10.58-2.68-44-60.51-48.38-63.72s-8.64,13.36-10.31,18.31-8.69,45-20.61,46.8c-13.49,2-28.29-42.67-34.36-60Z"/><path class="cls-7" d="M739.27,232.8V665.17H238L592.84,244.89c0,1.2,2.64,51.62,45.08,19.45,42.94-32.55,41.23-38.66,39.51-26.45s-19.78,63.6,8.59,48.83c17.35-9.05,43.36-41,46.31-46,1.41-2.38,5.64-11.66,6.58-9C739,232.11,739.15,232.46,739.27,232.8Z"/><path class="cls-8" d="M739.27,71.45V232.8c-.12-.34-.24-.69-.36-1-.94-2.69-5.17,6.59-6.58,9-3,5-29,36.91-46.31,46-28.37,14.77-10.31-36.62-8.59-48.83s3.43-6.1-39.51,26.45c-42.44,32.17-45-18.25-45.08-19.45Z"/><polyline class="cls-9" points="237.65 665.17 237.99 665.17 739.27 665.17 1240.54 665.17 1240.9 665.17"/><polyline class="cls-9" points="237.99 665.17 592.84 244.89 739.27 71.45 885.23 244.32 1240.54 665.17"/><polyline class="cls-9" points="739.27 71.05 739.27 71.45 739.27 232.8 739.27 665.17"/><path class="cls-9" d="M592.84,244.87v0c0,1.2,2.64,51.62,45.08,19.45,42.94-32.55,41.23-38.66,39.51-26.45s-19.78,63.6,8.59,48.83c17.35-9.05,43.36-41,46.31-46,1.41-2.38,5.64-11.66,6.58-9,.12.32.24.67.36,1,6.07,17.36,20.87,62,34.36,60,11.92-1.77,18.93-41.86,20.61-46.8s5.9-21.53,10.31-18.31,37.8,61,48.38,63.72c20,5.07,31.3-42.73,32.29-47.12a2.17,2.17,0,0,0,.07-.33"/><path class="cls-10" d="M739.23,695.16h-483V315c4.53-.19,9.58-1.79,15.09-5.41C292.38,295.73,298,289.81,312,297.7s21.59,14.14,38.87-6.76Z"/><path class="cls-11" d="M256.23,192.39l94.68,98.55c-17.28,20.9-24.83,14.67-38.87,6.76s-19.66-2-40.72,11.85c-5.51,3.62-10.56,5.22-15.09,5.41Z"/><path class="cls-8" d="M256.23,192.39V315c-12.75.54-21.49-10-25.62-17.26-5.62-9.87-8.43-3.95-37.22,8.89s-28.23-19.4-28.23-19.4Z"/><path class="cls-12" d="M-226.78,695.16l391.94-408s-.55,32.24,28.23,19.4,31.6-18.76,37.22-8.89c4.13,7.29,12.87,17.8,25.62,17.26v380.2Z"/><polyline class="cls-9" points="-226.78 695.16 165.16 287.19 256.23 192.39 350.91 290.94 739.23 695.16"/><polyline class="cls-9" points="256.23 192.05 256.23 192.39 256.23 314.96 256.23 695.16"/><path class="cls-13" d="M165.16,287.19s-.55,32.24,28.23,19.4,31.6-18.76,37.22-8.89c4.13,7.29,12.87,17.8,25.62,17.26,4.53-.19,9.58-1.79,15.09-5.41C292.38,295.73,298,289.81,312,297.7s21.59,14.14,38.87-6.76"/><path class="cls-14" d="M532.68,721.84c0-261.46,670.43-244.66,670.43,0Z"/></g><line class="cls-15" x1="4.61" y1="397.68" x2="621.27" y2="397.68"/><line class="cls-15" x1="4.61" y1="366.66" x2="621.27" y2="366.66"/><rect class="cls-16" x="1.61" y="1.68" width="862" height="679.97" rx="123.53" ry="123.53"/><path d="M83.59,670.29l65-194.57a10,10,0,0,0-7.57-13c-21.67-4.21-38.55-12.92-51.61-26.63C77.85,424,69.52,408.23,63.92,387.91,53.25,349.16,55,301.82,56.51,260.06c.23-6.34.45-12.53.63-18.53l61.43,54.72a10,10,0,0,0,6.65,2.54l42.54-.27h3l42.54.27a10,10,0,0,0,6.65-2.54l61.42-54.72c.18,6,.41,12.19.64,18.53,1.52,41.76,3.25,89.1-7.42,127.85-5.59,20.32-13.93,36.09-25.47,48.2-13.07,13.71-29.95,22.42-51.61,26.63a10,10,0,0,0-7.58,13l65,194.57Z"/><path d="M66.4,263.17l45.51,40.55a20,20,0,0,0,13.31,5.07h.12l42.48-.27h2.89l42.48.27h.13a20,20,0,0,0,13.3-5.07l45.51-40.55c1.47,40.36,2.87,85.65-7.16,122.08-5.14,18.69-12.69,33.07-23.07,44-11.58,12.16-26.72,19.91-46.28,23.71a20,20,0,0,0-15.15,26l60.59,181.4H97.47l60.6-181.4a20,20,0,0,0-15.16-26c-19.55-3.8-34.69-11.55-46.27-23.71-10.38-10.89-17.93-25.27-23.08-44-10-36.43-8.63-81.72-7.16-122.08M291,219.54l-77.72,69.25-42.48-.27v0H167.7v0l-42.48.27L47.5,219.54c.22,85.37-24.86,230.38,91.6,253L69.7,680.29H268.83L199.44,472.56c116.46-22.64,91.38-167.65,91.6-253Z"/><path class="cls-17" d="M578.9,219.54l-77.72,69.25-42.48-.27v0h-3.14v0l-42.48.27-77.72-69.25c.23,85.37-24.85,230.38,91.6,253L357.57,698.29H556.7L487.3,472.56C603.76,449.92,578.68,304.91,578.9,219.54Z"/></g></g></svg>